<?xml version="1.0" encoding="UTF-8"?>
<svg id="Layer_2" data-name="Layer 2" xmlns="http://www.w3.org/2000/svg" xmlns:xlink="http://www.w3.org/1999/xlink" viewBox="0 0 483.62 823.79">
  <defs>
    <style>
      .cls-1 {
        fill: none;
        stroke: url(#linear-gradient-2);
        stroke-miterlimit: 10;
      }

      .cls-2 {
        fill: url(#linear-gradient);
      }

      .cls-3 {
        fill: url(#linear-gradient-3);
      }

      .cls-4 {
        fill: url(#linear-gradient-4);
      }

      .cls-5 {
        fill: url(#linear-gradient-5);
      }
    </style>
    <linearGradient id="linear-gradient" x1="392.92" y1="393.12" x2="308.06" y2="41.66" gradientUnits="userSpaceOnUse">
      <stop offset="0" stop-color="#7fdaea"/>
      <stop offset=".4" stop-color="#03a9d3"/>
      <stop offset=".68" stop-color="#039dd4"/>
      <stop offset=".84" stop-color="#05d1ed"/>
      <stop offset="1" stop-color="#cee8f0"/>
    </linearGradient>
    <linearGradient id="linear-gradient-2" x1="20.81" y1="605.79" x2="287.76" y2="605.79" xlink:href="#linear-gradient"/>
    <linearGradient id="linear-gradient-3" x1="213.29" y1="642.44" x2="128.43" y2="290.97" xlink:href="#linear-gradient"/>
    <linearGradient id="linear-gradient-4" x1="291.06" y1="520.87" x2="228.02" y2="259.76" xlink:href="#linear-gradient"/>
    <linearGradient id="linear-gradient-5" x1="102.13" y1="751.6" x2="52.69" y2="546.83" xlink:href="#linear-gradient"/>
  </defs>
  <g id="OBJECTS">
    <g>
      <polygon class="cls-2" points="217.53 435.47 250.58 380.91 283.77 326.43 350.15 217.47 416.82 108.69 450.15 54.31 483.62 0 450.57 54.56 417.38 109.04 351 217.99 284.33 326.78 251 381.16 217.53 435.47"/>
      <line class="cls-1" x1="21.24" y1="823.53" x2="287.33" y2="388.06"/>
      <polygon class="cls-3" points="37.9 684.78 70.95 630.22 104.14 575.74 170.52 466.79 237.19 358.01 270.52 303.62 303.99 249.31 270.94 303.88 237.75 358.35 171.37 467.31 104.7 576.09 71.37 630.48 37.9 684.78"/>
      <polygon class="cls-4" points="358.31 228.67 333.83 269.21 309.21 309.67 259.96 390.58 210.44 471.31 185.67 511.68 160.76 551.96 185.25 511.42 209.87 470.96 259.11 390.06 308.64 309.32 333.41 268.96 358.31 228.67"/>
      <polygon class="cls-5" points="154.82 522.53 135.67 554.33 116.4 586.05 77.83 649.47 38.99 712.73 19.56 744.35 0 775.89 19.14 744.1 38.42 712.38 76.98 648.95 115.83 585.7 135.26 554.08 154.82 522.53"/>
    </g>
  </g>
</svg>