<?xml version="1.0" encoding="UTF-8"?>
<svg id="Layer_2" data-name="Layer 2" xmlns="http://www.w3.org/2000/svg" xmlns:xlink="http://www.w3.org/1999/xlink" viewBox="0 0 634.05 1019.25">
  <defs>
    <style>
      .cls-1 {
        fill: url(#linear-gradient);
      }

      .cls-2 {
        fill: #95aca9;
      }

      .cls-3 {
        filter: url(#drop-shadow-1);
      }

      .cls-4 {
        fill: url(#linear-gradient-3);
      }

      .cls-5 {
        fill: url(#linear-gradient-4);
      }

      .cls-6 {
        fill: url(#linear-gradient-2);
      }

      .cls-7 {
        fill: url(#linear-gradient-6);
      }

      .cls-8 {
        fill: url(#linear-gradient-7);
      }

      .cls-9 {
        fill: url(#linear-gradient-5);
      }
    </style>
    <filter id="drop-shadow-1" filterUnits="userSpaceOnUse">
      <feOffset dx="-5" dy="5"/>
      <feGaussianBlur result="blur" stdDeviation="3"/>
      <feFlood flood-color="#151519" flood-opacity=".6"/>
      <feComposite in2="blur" operator="in"/>
      <feComposite in="SourceGraphic"/>
    </filter>
    <linearGradient id="linear-gradient" x1="471.56" y1="461.97" x2="386.71" y2="110.51" gradientUnits="userSpaceOnUse">
      <stop offset="0" stop-color="#377a72"/>
      <stop offset=".3" stop-color="#224d47"/>
      <stop offset=".64" stop-color="#408980"/>
      <stop offset="1" stop-color="#377a72"/>
    </linearGradient>
    <linearGradient id="linear-gradient-2" x1="196.63" y1="976.9" x2="111.77" y2="625.44" xlink:href="#linear-gradient"/>
    <linearGradient id="linear-gradient-3" x1="213.29" y1="838.16" x2="128.43" y2="486.69" xlink:href="#linear-gradient"/>
    <linearGradient id="linear-gradient-4" x1="389.59" y1="544.57" x2="304.74" y2="193.11" xlink:href="#linear-gradient"/>
    <linearGradient id="linear-gradient-5" x1="543.34" y1="393.12" x2="458.49" y2="41.66" xlink:href="#linear-gradient"/>
    <linearGradient id="linear-gradient-6" x1="291.06" y1="716.59" x2="228.02" y2="455.49" xlink:href="#linear-gradient"/>
    <linearGradient id="linear-gradient-7" x1="102.13" y1="947.32" x2="52.69" y2="742.55" xlink:href="#linear-gradient"/>
  </defs>
  <g id="OBJECTS">
    <g class="cls-3">
      <g>
        <line class="cls-2" x1="296.17" y1="504.32" x2="562.27" y2="68.85"/>
        <polygon class="cls-1" points="296.17 504.32 329.22 449.76 362.41 395.28 428.79 286.32 495.46 177.54 528.79 123.15 562.27 68.85 529.21 123.41 496.02 177.89 429.64 286.84 362.98 395.62 329.64 450.01 296.17 504.32"/>
      </g>
      <g>
        <line class="cls-2" x1="21.24" y1="1019.25" x2="287.33" y2="583.78"/>
        <polygon class="cls-6" points="21.24 1019.25 54.29 964.69 87.48 910.21 153.86 801.25 220.53 692.47 253.86 638.08 287.33 583.78 254.28 638.34 221.09 692.82 154.71 801.77 88.04 910.55 54.71 964.94 21.24 1019.25"/>
      </g>
      <g>
        <line class="cls-2" x1="37.9" y1="880.5" x2="303.99" y2="445.04"/>
        <polygon class="cls-4" points="37.9 880.5 70.95 825.94 104.14 771.46 170.52 662.51 237.19 553.73 270.52 499.34 303.99 445.04 270.94 499.6 237.75 554.08 171.37 663.03 104.7 771.81 71.37 826.2 37.9 880.5"/>
      </g>
      <g>
        <line class="cls-2" x1="214.2" y1="586.92" x2="480.29" y2="151.45"/>
        <polygon class="cls-5" points="214.2 586.92 247.25 532.36 280.44 477.88 346.82 368.93 413.49 260.15 446.82 205.76 480.29 151.45 447.24 206.01 414.05 260.49 347.67 369.45 281.01 478.23 247.67 532.61 214.2 586.92"/>
      </g>
      <g>
        <line class="cls-2" x1="367.95" y1="435.47" x2="634.05"/>
        <polygon class="cls-9" points="367.95 435.47 401.01 380.91 434.19 326.43 500.57 217.47 567.24 108.69 600.58 54.31 634.05 0 600.99 54.56 567.81 109.04 501.43 217.99 434.76 326.77 401.42 381.16 367.95 435.47"/>
      </g>
      <g>
        <line class="cls-2" x1="358.31" y1="424.39" x2="160.76" y2="747.68"/>
        <polygon class="cls-7" points="358.31 424.39 333.83 464.93 309.21 505.39 259.96 586.3 210.43 667.03 185.67 707.4 160.76 747.68 185.25 707.14 209.87 666.69 259.11 585.78 308.64 505.04 333.41 464.68 358.31 424.39"/>
      </g>
      <g>
        <line class="cls-2" x1="154.82" y1="718.26" y2="971.62"/>
        <polygon class="cls-8" points="154.82 718.26 135.67 750.05 116.4 781.77 77.83 845.2 38.99 908.45 19.56 940.07 0 971.62 19.14 939.82 38.42 908.1 76.98 844.68 115.83 781.42 135.26 749.8 154.82 718.26"/>
      </g>
    </g>
  </g>
</svg>