<?xml version="1.0" encoding="UTF-8"?>
<svg id="Layer_2" data-name="Layer 2" xmlns="http://www.w3.org/2000/svg" xmlns:xlink="http://www.w3.org/1999/xlink" viewBox="0 0 105.84 100.83">
  <defs>
    <style>
      .cls-1 {
        fill: url(#Degradado_sin_nombre_4);
        stroke: url(#linear-gradient);
      }

      .cls-1, .cls-2, .cls-3, .cls-4, .cls-5, .cls-6, .cls-7, .cls-8, .cls-9, .cls-10, .cls-11, .cls-12, .cls-13, .cls-14, .cls-15, .cls-16, .cls-17, .cls-18, .cls-19, .cls-20, .cls-21, .cls-22, .cls-23, .cls-24, .cls-25, .cls-26, .cls-27, .cls-28, .cls-29, .cls-30, .cls-31, .cls-32, .cls-33, .cls-34, .cls-35, .cls-36, .cls-37, .cls-38, .cls-39, .cls-40, .cls-41, .cls-42, .cls-43, .cls-44, .cls-45, .cls-46, .cls-47, .cls-48, .cls-49, .cls-50, .cls-51, .cls-52, .cls-53, .cls-54, .cls-55, .cls-56, .cls-57, .cls-58, .cls-59, .cls-60, .cls-61, .cls-62, .cls-63, .cls-64, .cls-65, .cls-66, .cls-67, .cls-68, .cls-69, .cls-70, .cls-71, .cls-72, .cls-73, .cls-74, .cls-75, .cls-76, .cls-77, .cls-78, .cls-79, .cls-80, .cls-81, .cls-82, .cls-83, .cls-84, .cls-85, .cls-86, .cls-87, .cls-88, .cls-89, .cls-90, .cls-91, .cls-92, .cls-93, .cls-94, .cls-95, .cls-96, .cls-97, .cls-98, .cls-99, .cls-100, .cls-101, .cls-102, .cls-103, .cls-104 {
        stroke-miterlimit: 10;
      }

      .cls-2 {
        stroke: url(#linear-gradient-8);
      }

      .cls-2, .cls-3, .cls-4, .cls-5, .cls-6, .cls-10, .cls-11, .cls-12, .cls-13, .cls-14, .cls-15, .cls-16, .cls-17, .cls-18, .cls-19, .cls-20, .cls-21, .cls-22, .cls-23, .cls-24, .cls-25, .cls-26, .cls-27, .cls-28, .cls-29, .cls-30, .cls-31, .cls-32, .cls-33, .cls-34, .cls-35, .cls-36, .cls-37, .cls-38, .cls-39, .cls-40, .cls-41, .cls-42, .cls-43, .cls-44, .cls-45, .cls-46, .cls-47, .cls-48, .cls-49, .cls-50, .cls-51, .cls-52, .cls-53, .cls-54, .cls-55, .cls-56, .cls-57, .cls-58, .cls-59, .cls-60, .cls-61, .cls-62, .cls-63, .cls-64, .cls-65, .cls-66, .cls-67, .cls-68, .cls-69, .cls-70, .cls-71, .cls-72, .cls-73, .cls-74, .cls-75, .cls-76, .cls-77, .cls-78, .cls-79, .cls-80, .cls-81, .cls-82, .cls-83, .cls-84, .cls-85, .cls-86, .cls-87, .cls-88, .cls-89, .cls-90, .cls-91, .cls-92, .cls-93, .cls-94, .cls-95, .cls-96, .cls-97, .cls-98, .cls-99, .cls-100, .cls-101, .cls-102, .cls-103, .cls-104 {
        fill: none;
      }

      .cls-3 {
        stroke: url(#linear-gradient-9);
      }

      .cls-4 {
        stroke: url(#linear-gradient-5);
      }

      .cls-5 {
        stroke: url(#linear-gradient-7);
      }

      .cls-6 {
        stroke: url(#linear-gradient-3);
      }

      .cls-105 {
        clip-path: url(#clippath);
      }

      .cls-7 {
        fill: url(#Degradado_sin_nombre_6);
        stroke: url(#linear-gradient-6);
      }

      .cls-8 {
        fill: url(#Degradado_sin_nombre_4-2);
        stroke: url(#linear-gradient-2);
      }

      .cls-9 {
        fill: url(#Degradado_sin_nombre_4-3);
        stroke: url(#linear-gradient-4);
      }

      .cls-106 {
        filter: url(#drop-shadow-1);
      }

      .cls-10 {
        stroke: url(#linear-gradient-102);
      }

      .cls-11 {
        stroke: url(#linear-gradient-103);
      }

      .cls-12 {
        stroke: url(#linear-gradient-104);
      }

      .cls-13 {
        stroke: url(#linear-gradient-100);
      }

      .cls-14 {
        stroke: url(#linear-gradient-101);
      }

      .cls-15 {
        stroke: url(#linear-gradient-40);
      }

      .cls-16 {
        stroke: url(#linear-gradient-41);
      }

      .cls-17 {
        stroke: url(#linear-gradient-42);
      }

      .cls-18 {
        stroke: url(#linear-gradient-43);
      }

      .cls-19 {
        stroke: url(#linear-gradient-49);
      }

      .cls-20 {
        stroke: url(#linear-gradient-44);
      }

      .cls-21 {
        stroke: url(#linear-gradient-45);
      }

      .cls-22 {
        stroke: url(#linear-gradient-46);
      }

      .cls-23 {
        stroke: url(#linear-gradient-48);
      }

      .cls-24 {
        stroke: url(#linear-gradient-47);
      }

      .cls-25 {
        stroke: url(#linear-gradient-66);
      }

      .cls-26 {
        stroke: url(#linear-gradient-60);
      }

      .cls-27 {
        stroke: url(#linear-gradient-63);
      }

      .cls-28 {
        stroke: url(#linear-gradient-64);
      }

      .cls-29 {
        stroke: url(#linear-gradient-61);
      }

      .cls-30 {
        stroke: url(#linear-gradient-62);
      }

      .cls-31 {
        stroke: url(#linear-gradient-67);
      }

      .cls-32 {
        stroke: url(#linear-gradient-68);
      }

      .cls-33 {
        stroke: url(#linear-gradient-65);
      }

      .cls-34 {
        stroke: url(#linear-gradient-53);
      }

      .cls-35 {
        stroke: url(#linear-gradient-51);
      }

      .cls-36 {
        stroke: url(#linear-gradient-52);
      }

      .cls-37 {
        stroke: url(#linear-gradient-55);
      }

      .cls-38 {
        stroke: url(#linear-gradient-56);
      }

      .cls-39 {
        stroke: url(#linear-gradient-50);
      }

      .cls-40 {
        stroke: url(#linear-gradient-59);
      }

      .cls-41 {
        stroke: url(#linear-gradient-54);
      }

      .cls-42 {
        stroke: url(#linear-gradient-69);
      }

      .cls-43 {
        stroke: url(#linear-gradient-57);
      }

      .cls-44 {
        stroke: url(#linear-gradient-58);
      }

      .cls-45 {
        stroke: url(#linear-gradient-72);
      }

      .cls-46 {
        stroke: url(#linear-gradient-73);
      }

      .cls-47 {
        stroke: url(#linear-gradient-74);
      }

      .cls-48 {
        stroke: url(#linear-gradient-75);
      }

      .cls-49 {
        stroke: url(#linear-gradient-77);
      }

      .cls-50 {
        stroke: url(#linear-gradient-78);
      }

      .cls-51 {
        stroke: url(#linear-gradient-79);
      }

      .cls-52 {
        stroke: url(#linear-gradient-70);
      }

      .cls-53 {
        stroke: url(#linear-gradient-71);
      }

      .cls-54 {
        stroke: url(#linear-gradient-76);
      }

      .cls-55 {
        stroke: url(#linear-gradient-36);
      }

      .cls-56 {
        stroke: url(#linear-gradient-37);
      }

      .cls-57 {
        stroke: url(#linear-gradient-39);
      }

      .cls-58 {
        stroke: url(#linear-gradient-34);
      }

      .cls-59 {
        stroke: url(#linear-gradient-38);
      }

      .cls-60 {
        stroke: url(#linear-gradient-33);
      }

      .cls-61 {
        stroke: url(#linear-gradient-35);
      }

      .cls-62 {
        stroke: url(#linear-gradient-31);
      }

      .cls-63 {
        stroke: url(#linear-gradient-32);
      }

      .cls-64 {
        stroke: url(#linear-gradient-30);
      }

      .cls-65 {
        stroke: url(#linear-gradient-24);
      }

      .cls-66 {
        stroke: url(#linear-gradient-26);
      }

      .cls-67 {
        stroke: url(#linear-gradient-29);
      }

      .cls-68 {
        stroke: url(#linear-gradient-28);
      }

      .cls-69 {
        stroke: url(#linear-gradient-25);
      }

      .cls-70 {
        stroke: url(#linear-gradient-27);
      }

      .cls-71 {
        stroke: url(#linear-gradient-84);
      }

      .cls-72 {
        stroke: url(#linear-gradient-85);
      }

      .cls-73 {
        stroke: url(#linear-gradient-80);
      }

      .cls-74 {
        stroke: url(#linear-gradient-81);
      }

      .cls-75 {
        stroke: url(#linear-gradient-82);
      }

      .cls-76 {
        stroke: url(#linear-gradient-83);
      }

      .cls-77 {
        stroke: url(#linear-gradient-96);
      }

      .cls-78 {
        stroke: url(#linear-gradient-97);
      }

      .cls-79 {
        stroke: url(#linear-gradient-98);
      }

      .cls-80 {
        stroke: url(#linear-gradient-91);
      }

      .cls-81 {
        stroke: url(#linear-gradient-99);
      }

      .cls-82 {
        stroke: url(#linear-gradient-94);
      }

      .cls-83 {
        stroke: url(#linear-gradient-20);
      }

      .cls-84 {
        stroke: url(#linear-gradient-23);
      }

      .cls-85 {
        stroke: url(#linear-gradient-90);
      }

      .cls-86 {
        stroke: url(#linear-gradient-95);
      }

      .cls-87 {
        stroke: url(#linear-gradient-93);
      }

      .cls-88 {
        stroke: url(#linear-gradient-92);
      }

      .cls-89 {
        stroke: url(#linear-gradient-89);
      }

      .cls-90 {
        stroke: url(#linear-gradient-88);
      }

      .cls-91 {
        stroke: url(#linear-gradient-86);
      }

      .cls-92 {
        stroke: url(#linear-gradient-87);
      }

      .cls-93 {
        stroke: url(#linear-gradient-22);
      }

      .cls-94 {
        stroke: url(#linear-gradient-21);
      }

      .cls-95 {
        stroke: url(#linear-gradient-12);
      }

      .cls-96 {
        stroke: url(#linear-gradient-13);
      }

      .cls-97 {
        stroke: url(#linear-gradient-11);
      }

      .cls-98 {
        stroke: url(#linear-gradient-10);
      }

      .cls-99 {
        stroke: url(#linear-gradient-19);
      }

      .cls-100 {
        stroke: url(#linear-gradient-17);
      }

      .cls-101 {
        stroke: url(#linear-gradient-15);
      }

      .cls-102 {
        stroke: url(#linear-gradient-18);
      }

      .cls-103 {
        stroke: url(#linear-gradient-16);
      }

      .cls-104 {
        stroke: url(#linear-gradient-14);
      }
    </style>
    <filter id="drop-shadow-1" filterUnits="userSpaceOnUse">
      <feOffset dx="5" dy="10"/>
      <feGaussianBlur result="blur" stdDeviation="7"/>
      <feFlood flood-color="#000" flood-opacity=".4"/>
      <feComposite in2="blur" operator="in"/>
      <feComposite in="SourceGraphic"/>
    </filter>
    <linearGradient id="Degradado_sin_nombre_4" data-name="Degradado sin nombre 4" x1="-54.12" y1="289.14" x2="-74.08" y2="209.31" gradientTransform="translate(218.43 -128.58) rotate(25.09)" gradientUnits="userSpaceOnUse">
      <stop offset="0" stop-color="#313337"/>
      <stop offset=".02" stop-color="#303235"/>
      <stop offset=".3" stop-color="#222325"/>
      <stop offset=".61" stop-color="#1a1a1b"/>
      <stop offset="1" stop-color="#181818"/>
    </linearGradient>
    <linearGradient id="linear-gradient" x1="1" y1="50.35" x2="104.81" y2="50.35" gradientUnits="userSpaceOnUse">
      <stop offset="0" stop-color="#00c20d" stop-opacity="0"/>
      <stop offset=".08" stop-color="#00bb0c" stop-opacity=".24"/>
      <stop offset=".18" stop-color="#00b30b" stop-opacity=".51"/>
      <stop offset=".28" stop-color="#00ad0b" stop-opacity=".72"/>
      <stop offset=".38" stop-color="#00a90b" stop-opacity=".88"/>
      <stop offset=".46" stop-color="#00a60b" stop-opacity=".97"/>
      <stop offset=".53" stop-color="#00a60b"/>
      <stop offset=".81" stop-color="#0a990d"/>
      <stop offset="1" stop-color="#00b10c"/>
    </linearGradient>
    <linearGradient id="Degradado_sin_nombre_4-2" data-name="Degradado sin nombre 4" x1="25.69" y1="58.83" x2="80.35" y2="16.98" gradientTransform="matrix(1,0,0,1,0,0)" xlink:href="#Degradado_sin_nombre_4"/>
    <linearGradient id="linear-gradient-2" x1=".1" y1="29.14" x2="84.25" y2="29.14" xlink:href="#linear-gradient"/>
    <linearGradient id="linear-gradient-3" x1="0" y1="29.43" x2="84.15" y2="29.43" gradientUnits="userSpaceOnUse">
      <stop offset="0" stop-color="#9f9" stop-opacity="0"/>
      <stop offset=".35" stop-color="#02ab0c"/>
      <stop offset=".67" stop-color="#93fc93" stop-opacity=".01"/>
      <stop offset="1" stop-color="#93fc93" stop-opacity=".03"/>
      <stop offset="1" stop-color="#0a990d"/>
    </linearGradient>
    <linearGradient id="Degradado_sin_nombre_4-3" data-name="Degradado sin nombre 4" x1="46.92" y1="90.23" x2="59.06" y2="66.38" gradientTransform="matrix(1,0,0,1,0,0)" xlink:href="#Degradado_sin_nombre_4"/>
    <linearGradient id="linear-gradient-4" x1=".05" y1="75.04" x2="105.84" y2="75.04" gradientUnits="userSpaceOnUse">
      <stop offset="0" stop-color="#00c20d" stop-opacity="0"/>
      <stop offset=".53" stop-color="#00a60b" stop-opacity="0"/>
      <stop offset=".81" stop-color="#0a990d"/>
      <stop offset="1" stop-color="#00b10c"/>
    </linearGradient>
    <linearGradient id="linear-gradient-5" x1="2" y1="74.7" x2="104.16" y2="74.7" gradientUnits="userSpaceOnUse">
      <stop offset="0" stop-color="#00c20d" stop-opacity="0"/>
      <stop offset=".26" stop-color="#00a60b" stop-opacity="0"/>
      <stop offset=".29" stop-color="#00a40b" stop-opacity=".04"/>
      <stop offset=".45" stop-color="#059e0c" stop-opacity=".29"/>
      <stop offset=".58" stop-color="#089a0c" stop-opacity=".44"/>
      <stop offset=".66" stop-color="#0a990d" stop-opacity=".5"/>
      <stop offset=".72" stop-color="#079e0c" stop-opacity=".64"/>
      <stop offset=".84" stop-color="#02ab0c" stop-opacity=".99"/>
      <stop offset=".84" stop-color="#02ac0c"/>
      <stop offset="1" stop-color="#9f9"/>
    </linearGradient>
    <linearGradient id="Degradado_sin_nombre_6" data-name="Degradado sin nombre 6" x1="72.97" y1="26.76" x2="89.5" y2="97.52" gradientUnits="userSpaceOnUse">
      <stop offset="0" stop-color="#313337"/>
      <stop offset="1" stop-color="#181818"/>
    </linearGradient>
    <linearGradient id="linear-gradient-6" x1="61.9" y1="50.44" x2="105.02" y2="50.44" gradientUnits="userSpaceOnUse">
      <stop offset="0" stop-color="#00c20d" stop-opacity="0"/>
      <stop offset=".53" stop-color="#00a60b" stop-opacity="0"/>
      <stop offset=".81" stop-color="#0a990d"/>
      <stop offset="1" stop-color="#00b10c"/>
    </linearGradient>
    <linearGradient id="linear-gradient-7" x1="61.63" y1="49.69" x2="104.33" y2="49.69" gradientUnits="userSpaceOnUse">
      <stop offset="0" stop-color="#00c20d" stop-opacity="0"/>
      <stop offset=".26" stop-color="#00a60b" stop-opacity="0"/>
      <stop offset=".28" stop-color="#00a40b" stop-opacity=".04"/>
      <stop offset=".42" stop-color="#059e0c" stop-opacity=".29"/>
      <stop offset=".52" stop-color="#089a0c" stop-opacity=".44"/>
      <stop offset=".59" stop-color="#0a990d" stop-opacity=".5"/>
      <stop offset=".67" stop-color="#079e0c" stop-opacity=".64"/>
      <stop offset=".84" stop-color="#02ab0c" stop-opacity=".99"/>
      <stop offset=".84" stop-color="#02ac0c"/>
      <stop offset="1" stop-color="#9f9"/>
    </linearGradient>
    <clipPath id="clippath">
      <path class="cls-5" d="m82.86,1.65l20.97,97.2s-.03.05-.05.03l-41.56-48.57L82.86,1.65Z"/>
    </clipPath>
    <linearGradient id="linear-gradient-8" x1="88.62" y1="5.12" x2="90.06" y2="5.12" gradientUnits="userSpaceOnUse">
      <stop offset="0" stop-color="#00c20d" stop-opacity="0"/>
      <stop offset=".26" stop-color="#00a60b" stop-opacity="0"/>
      <stop offset=".32" stop-color="#01a30b" stop-opacity=".19"/>
      <stop offset=".43" stop-color="#059f0c" stop-opacity=".54"/>
      <stop offset=".53" stop-color="#079b0c" stop-opacity=".79"/>
      <stop offset=".61" stop-color="#09990c" stop-opacity=".94"/>
      <stop offset=".66" stop-color="#0a990d"/>
      <stop offset=".84" stop-color="#02ac0c"/>
      <stop offset="1" stop-color="#fff"/>
    </linearGradient>
    <linearGradient id="linear-gradient-9" x1="81.21" y1="5" x2="82.7" y2="5" xlink:href="#linear-gradient-8"/>
    <linearGradient id="linear-gradient-10" x1="95.34" y1="5.22" x2="96.75" y2="5.22" xlink:href="#linear-gradient-8"/>
    <linearGradient id="linear-gradient-11" x1="89.5" y1="9.2" x2="90.94" y2="9.2" xlink:href="#linear-gradient-8"/>
    <linearGradient id="linear-gradient-12" x1="82.14" y1="9.29" x2="83.63" y2="9.29" xlink:href="#linear-gradient-8"/>
    <linearGradient id="linear-gradient-13" x1="96.18" y1="9.11" x2="97.59" y2="9.11" xlink:href="#linear-gradient-8"/>
    <linearGradient id="linear-gradient-14" x1="90.38" y1="13.29" x2="91.82" y2="13.29" xlink:href="#linear-gradient-8"/>
    <linearGradient id="linear-gradient-15" x1="74.96" y1="13.93" x2="76.5" y2="13.93" xlink:href="#linear-gradient-8"/>
    <linearGradient id="linear-gradient-16" x1="83.06" y1="13.59" x2="84.55" y2="13.59" xlink:href="#linear-gradient-8"/>
    <linearGradient id="linear-gradient-17" x1="65.94" y1="14.3" x2="67.54" y2="14.3" xlink:href="#linear-gradient-8"/>
    <linearGradient id="linear-gradient-18" x1="83.99" y1="17.88" x2="85.48" y2="17.88" xlink:href="#linear-gradient-8"/>
    <linearGradient id="linear-gradient-19" x1="91.27" y1="17.37" x2="92.7" y2="17.37" xlink:href="#linear-gradient-8"/>
    <linearGradient id="linear-gradient-20" x1="75.94" y1="18.45" x2="77.48" y2="18.45" xlink:href="#linear-gradient-8"/>
    <linearGradient id="linear-gradient-21" x1="66.97" y1="19.07" x2="68.57" y2="19.07" xlink:href="#linear-gradient-8"/>
    <linearGradient id="linear-gradient-22" x1="92.15" y1="21.47" x2="93.58" y2="21.47" xlink:href="#linear-gradient-8"/>
    <linearGradient id="linear-gradient-23" x1="76.92" y1="22.98" x2="78.45" y2="22.98" xlink:href="#linear-gradient-8"/>
    <linearGradient id="linear-gradient-24" x1="68" y1="23.86" x2="69.6" y2="23.86" xlink:href="#linear-gradient-8"/>
    <linearGradient id="linear-gradient-25" x1="84.92" y1="22.19" x2="86.4" y2="22.19" xlink:href="#linear-gradient-8"/>
    <linearGradient id="linear-gradient-26" x1="85.85" y1="26.47" x2="87.33" y2="26.47" xlink:href="#linear-gradient-8"/>
    <linearGradient id="linear-gradient-27" x1="59.12" y1="29.91" x2="60.78" y2="29.91" xlink:href="#linear-gradient-8"/>
    <linearGradient id="linear-gradient-28" x1="69.04" y1="28.64" x2="70.63" y2="28.64" xlink:href="#linear-gradient-8"/>
    <linearGradient id="linear-gradient-29" x1="77.89" y1="27.5" x2="79.42" y2="27.5" xlink:href="#linear-gradient-8"/>
    <linearGradient id="linear-gradient-30" x1="93.03" y1="25.55" x2="94.46" y2="25.55" xlink:href="#linear-gradient-8"/>
    <linearGradient id="linear-gradient-31" x1="78.87" y1="32.03" x2="80.4" y2="32.03" xlink:href="#linear-gradient-8"/>
    <linearGradient id="linear-gradient-32" x1="70.07" y1="33.43" x2="71.66" y2="33.43" xlink:href="#linear-gradient-8"/>
    <linearGradient id="linear-gradient-33" x1="86.77" y1="30.78" x2="88.25" y2="30.78" xlink:href="#linear-gradient-8"/>
    <linearGradient id="linear-gradient-34" x1="60.21" y1="34.99" x2="61.87" y2="34.99" xlink:href="#linear-gradient-8"/>
    <linearGradient id="linear-gradient-35" x1="93.91" y1="29.64" x2="95.34" y2="29.64" xlink:href="#linear-gradient-8"/>
    <linearGradient id="linear-gradient-36" x1="94.79" y1="33.72" x2="96.22" y2="33.72" xlink:href="#linear-gradient-8"/>
    <linearGradient id="linear-gradient-37" x1="71.11" y1="38.2" x2="72.69" y2="38.2" xlink:href="#linear-gradient-8"/>
    <linearGradient id="linear-gradient-38" x1="87.7" y1="35.07" x2="89.17" y2="35.07" xlink:href="#linear-gradient-8"/>
    <linearGradient id="linear-gradient-39" x1="61.31" y1="40.05" x2="62.96" y2="40.05" xlink:href="#linear-gradient-8"/>
    <linearGradient id="linear-gradient-40" x1="79.85" y1="36.55" x2="81.37" y2="36.55" xlink:href="#linear-gradient-8"/>
    <linearGradient id="linear-gradient-41" x1="88.63" y1="39.37" x2="90.1" y2="39.37" xlink:href="#linear-gradient-8"/>
    <linearGradient id="linear-gradient-42" x1="95.68" y1="37.82" x2="97.1" y2="37.82" xlink:href="#linear-gradient-8"/>
    <linearGradient id="linear-gradient-43" x1="102.07" y1="36.41" x2="103.46" y2="36.41" xlink:href="#linear-gradient-8"/>
    <linearGradient id="linear-gradient-44" x1="62.4" y1="45.13" x2="64.05" y2="45.13" xlink:href="#linear-gradient-8"/>
    <linearGradient id="linear-gradient-45" x1="80.82" y1="41.08" x2="82.34" y2="41.08" xlink:href="#linear-gradient-8"/>
    <linearGradient id="linear-gradient-46" x1="72.14" y1="42.99" x2="73.72" y2="42.99" xlink:href="#linear-gradient-8"/>
    <linearGradient id="linear-gradient-47" x1="96.56" y1="41.9" x2="97.98" y2="41.9" xlink:href="#linear-gradient-8"/>
    <linearGradient id="linear-gradient-48" x1="63.5" y1="50.19" x2="65.15" y2="50.19" xlink:href="#linear-gradient-8"/>
    <linearGradient id="linear-gradient-49" x1="102.91" y1="40.31" x2="104.3" y2="40.31" xlink:href="#linear-gradient-8"/>
    <linearGradient id="linear-gradient-50" x1="81.8" y1="45.6" x2="83.32" y2="45.6" xlink:href="#linear-gradient-8"/>
    <linearGradient id="linear-gradient-51" x1="73.17" y1="47.76" x2="74.75" y2="47.76" xlink:href="#linear-gradient-8"/>
    <linearGradient id="linear-gradient-52" x1="89.56" y1="43.65" x2="91.02" y2="43.65" xlink:href="#linear-gradient-8"/>
    <linearGradient id="linear-gradient-53" x1="97.44" y1="45.99" x2="98.86" y2="45.99" xlink:href="#linear-gradient-8"/>
    <linearGradient id="linear-gradient-54" x1="90.48" y1="47.96" x2="91.95" y2="47.96" xlink:href="#linear-gradient-8"/>
    <linearGradient id="linear-gradient-55" x1="64.59" y1="55.26" x2="66.24" y2="55.26" xlink:href="#linear-gradient-8"/>
    <linearGradient id="linear-gradient-56" x1="82.78" y1="50.13" x2="84.29" y2="50.13" xlink:href="#linear-gradient-8"/>
    <linearGradient id="linear-gradient-57" x1="103.75" y1="44.21" x2="105.14" y2="44.21" xlink:href="#linear-gradient-8"/>
    <linearGradient id="linear-gradient-58" x1="74.2" y1="52.55" x2="75.77" y2="52.55" xlink:href="#linear-gradient-8"/>
    <linearGradient id="linear-gradient-59" x1="83.76" y1="54.65" x2="85.27" y2="54.65" xlink:href="#linear-gradient-8"/>
    <linearGradient id="linear-gradient-60" x1="104.6" y1="48.1" x2="105.98" y2="48.1" xlink:href="#linear-gradient-8"/>
    <linearGradient id="linear-gradient-61" x1="65.69" y1="60.32" x2="67.33" y2="60.32" xlink:href="#linear-gradient-8"/>
    <linearGradient id="linear-gradient-62" x1="91.41" y1="52.24" x2="92.87" y2="52.24" xlink:href="#linear-gradient-8"/>
    <linearGradient id="linear-gradient-63" x1="75.24" y1="57.32" x2="76.8" y2="57.32" xlink:href="#linear-gradient-8"/>
    <linearGradient id="linear-gradient-64" x1="98.32" y1="50.07" x2="99.74" y2="50.07" xlink:href="#linear-gradient-8"/>
    <linearGradient id="linear-gradient-65" x1="92.34" y1="56.55" x2="93.79" y2="56.55" xlink:href="#linear-gradient-8"/>
    <linearGradient id="linear-gradient-66" x1="84.73" y1="59.18" x2="86.24" y2="59.18" xlink:href="#linear-gradient-8"/>
    <linearGradient id="linear-gradient-67" x1="76.27" y1="62.11" x2="77.83" y2="62.11" xlink:href="#linear-gradient-8"/>
    <linearGradient id="linear-gradient-68" x1="105.44" y1="52.01" x2="106.81" y2="52.01" xlink:href="#linear-gradient-8"/>
    <linearGradient id="linear-gradient-69" x1="99.2" y1="54.17" x2="100.62" y2="54.17" xlink:href="#linear-gradient-8"/>
    <linearGradient id="linear-gradient-70" x1="66.78" y1="65.39" x2="68.42" y2="65.39" xlink:href="#linear-gradient-8"/>
    <linearGradient id="linear-gradient-71" x1="100.09" y1="58.25" x2="101.5" y2="58.25" xlink:href="#linear-gradient-8"/>
    <linearGradient id="linear-gradient-72" x1="77.3" y1="66.89" x2="78.86" y2="66.89" xlink:href="#linear-gradient-8"/>
    <linearGradient id="linear-gradient-73" x1="67.88" y1="70.46" x2="69.51" y2="70.46" xlink:href="#linear-gradient-8"/>
    <linearGradient id="linear-gradient-74" x1="85.71" y1="63.7" x2="87.22" y2="63.7" xlink:href="#linear-gradient-8"/>
    <linearGradient id="linear-gradient-75" x1="93.27" y1="60.83" x2="94.72" y2="60.83" xlink:href="#linear-gradient-8"/>
    <linearGradient id="linear-gradient-76" x1="78.33" y1="71.67" x2="79.89" y2="71.67" xlink:href="#linear-gradient-8"/>
    <linearGradient id="linear-gradient-77" x1="100.97" y1="62.34" x2="102.38" y2="62.34" xlink:href="#linear-gradient-8"/>
    <linearGradient id="linear-gradient-78" x1="94.19" y1="65.13" x2="95.64" y2="65.13" xlink:href="#linear-gradient-8"/>
    <linearGradient id="linear-gradient-79" x1="68.97" y1="75.53" x2="70.6" y2="75.53" xlink:href="#linear-gradient-8"/>
    <linearGradient id="linear-gradient-80" x1="86.69" y1="68.23" x2="88.19" y2="68.23" xlink:href="#linear-gradient-8"/>
    <linearGradient id="linear-gradient-81" x1="101.85" y1="66.42" x2="103.26" y2="66.42" xlink:href="#linear-gradient-8"/>
    <linearGradient id="linear-gradient-82" x1="87.67" y1="72.75" x2="89.16" y2="72.75" xlink:href="#linear-gradient-8"/>
    <linearGradient id="linear-gradient-83" x1="95.12" y1="69.42" x2="96.57" y2="69.42" xlink:href="#linear-gradient-8"/>
    <linearGradient id="linear-gradient-84" x1="79.37" y1="76.45" x2="80.92" y2="76.45" xlink:href="#linear-gradient-8"/>
    <linearGradient id="linear-gradient-85" x1="70.07" y1="80.59" x2="71.69" y2="80.59" xlink:href="#linear-gradient-8"/>
    <linearGradient id="linear-gradient-86" x1="96.05" y1="73.72" x2="97.49" y2="73.72" xlink:href="#linear-gradient-8"/>
    <linearGradient id="linear-gradient-87" x1="88.64" y1="77.28" x2="90.13" y2="77.28" xlink:href="#linear-gradient-8"/>
    <linearGradient id="linear-gradient-88" x1="80.4" y1="81.23" x2="81.95" y2="81.23" xlink:href="#linear-gradient-8"/>
    <linearGradient id="linear-gradient-89" x1="71.16" y1="85.66" x2="72.78" y2="85.66" xlink:href="#linear-gradient-8"/>
    <linearGradient id="linear-gradient-90" x1="102.73" y1="70.51" x2="104.14" y2="70.51" xlink:href="#linear-gradient-8"/>
    <linearGradient id="linear-gradient-91" x1="96.97" y1="78.01" x2="98.41" y2="78.01" xlink:href="#linear-gradient-8"/>
    <linearGradient id="linear-gradient-92" x1="89.62" y1="81.8" x2="91.11" y2="81.8" xlink:href="#linear-gradient-8"/>
    <linearGradient id="linear-gradient-93" x1="81.43" y1="86" x2="82.97" y2="86" xlink:href="#linear-gradient-8"/>
    <linearGradient id="linear-gradient-94" x1="103.61" y1="74.59" x2="105.01" y2="74.59" xlink:href="#linear-gradient-8"/>
    <linearGradient id="linear-gradient-95" x1="90.59" y1="86.32" x2="92.08" y2="86.32" xlink:href="#linear-gradient-8"/>
    <linearGradient id="linear-gradient-96" x1="97.9" y1="82.31" x2="99.34" y2="82.31" xlink:href="#linear-gradient-8"/>
    <linearGradient id="linear-gradient-97" x1="104.5" y1="78.69" x2="105.89" y2="78.69" xlink:href="#linear-gradient-8"/>
    <linearGradient id="linear-gradient-98" x1="105.38" y1="82.77" x2="106.77" y2="82.77" xlink:href="#linear-gradient-8"/>
    <linearGradient id="linear-gradient-99" x1="98.83" y1="86.6" x2="100.26" y2="86.6" xlink:href="#linear-gradient-8"/>
    <linearGradient id="linear-gradient-100" x1="91.57" y1="90.84" x2="93.05" y2="90.84" xlink:href="#linear-gradient-8"/>
    <linearGradient id="linear-gradient-101" x1="99.75" y1="90.89" x2="101.19" y2="90.89" xlink:href="#linear-gradient-8"/>
    <linearGradient id="linear-gradient-102" x1="92.55" y1="95.37" x2="94.03" y2="95.37" xlink:href="#linear-gradient-8"/>
    <linearGradient id="linear-gradient-103" x1="100.68" y1="95.18" x2="102.11" y2="95.18" xlink:href="#linear-gradient-8"/>
    <linearGradient id="linear-gradient-104" x1="93.52" y1="99.89" x2="95" y2="99.89" xlink:href="#linear-gradient-8"/>
  </defs>
  <g id="OBJECTS">
    <g class="cls-106">
      <polygon class="cls-1" points="2.05 57.24 83.13 1.7 104.12 99.01 2.05 57.24"/>
      <polygon class="cls-8" points="2.05 57.24 62.48 50.35 83.13 1.7 2.05 57.24"/>
      <path class="cls-6" d="m82.02,3.04l-19.88,46.85L3.95,56.53,82.02,3.04m1-1.06L1.94,57.53l60.43-6.89L83.02,1.99h0Z"/>
      <polygon class="cls-9" points="62.48 50.35 104.12 99.01 2.05 57.24 62.48 50.35"/>
      <path class="cls-4" d="m62.28,50.87l40.16,46.92L4,57.51l58.28-6.64"/>
      <polygon class="cls-7" points="83.13 1.7 104.12 99.01 62.48 50.35 83.13 1.7"/>
      <g>
        <g class="cls-105">
          <g>
            <path class="cls-2" d="m89.31,4.93c-.12,0-.21.08-.19.17.02.1.15.19.27.2.12,0,.19-.09.17-.19-.02-.09-.13-.18-.25-.18Z"/>
            <path class="cls-3" d="m81.92,4.81c-.14,0-.23.09-.21.18.02.11.16.2.3.21.14,0,.21-.09.19-.2-.02-.09-.14-.19-.27-.19Z"/>
            <path class="cls-98" d="m96.01,5.05c-.11,0-.19.08-.17.16.02.1.14.18.25.19.1,0,.17-.08.15-.18-.02-.08-.13-.17-.23-.17Z"/>
            <path class="cls-97" d="m90.19,9.01c-.12,0-.21.09-.19.19.02.1.14.18.27.17.12,0,.19-.08.17-.18-.02-.1-.13-.19-.25-.19Z"/>
            <path class="cls-95" d="m82.85,9.1c-.13,0-.23.1-.21.2.02.11.16.18.29.18.13,0,.21-.08.19-.19-.02-.11-.14-.2-.27-.2Z"/>
            <path class="cls-96" d="m96.85,8.94c-.11,0-.19.09-.17.18.02.1.13.17.24.17.11,0,.18-.07.15-.17-.02-.1-.12-.18-.23-.18Z"/>
            <path class="cls-104" d="m91.07,13.11c-.12,0-.21.1-.19.19.02.1.15.19.27.18.12,0,.19-.1.17-.2-.02-.09-.13-.17-.25-.17Z"/>
            <path class="cls-101" d="m75.7,13.72c-.15,0-.26.11-.23.21.02.11.17.21.32.2.15,0,.23-.11.21-.22-.02-.1-.15-.19-.3-.19Z"/>
            <path class="cls-103" d="m83.78,13.4c-.13,0-.23.1-.21.2.02.11.16.2.29.19.13,0,.21-.1.19-.21-.02-.09-.14-.18-.27-.18Z"/>
            <path class="cls-100" d="m66.71,14.08c-.17,0-.29.12-.26.22.03.12.19.22.36.21.17,0,.26-.12.24-.24-.02-.1-.16-.2-.33-.2Z"/>
            <path class="cls-102" d="m84.7,17.69c-.13,0-.23.11-.2.22.02.11.15.18.29.17.11,0,.21-.09.19-.2-.02-.11-.16-.19-.27-.18Z"/>
            <path class="cls-99" d="m91.95,17.19c-.12,0-.21.1-.18.21.02.1.14.17.26.16.1,0,.19-.09.17-.19-.02-.1-.14-.18-.25-.18Z"/>
            <path class="cls-83" d="m76.67,18.24c-.15.01-.25.12-.23.23.02.12.17.19.32.18.15-.01.24-.1.21-.21-.02-.11-.15-.2-.3-.19Z"/>
            <path class="cls-94" d="m67.74,18.86c-.16.01-.28.12-.26.25.03.12.19.2.35.19.16-.01.26-.11.24-.23-.03-.12-.17-.22-.33-.2Z"/>
            <path class="cls-93" d="m92.83,21.28c-.12.01-.21.1-.18.2.02.1.14.18.26.17.12-.01.19-.11.16-.21-.02-.1-.12-.17-.24-.16Z"/>
            <path class="cls-84" d="m77.65,22.78c-.15.01-.26.11-.23.22.02.11.17.2.32.18.15-.01.23-.12.21-.24-.02-.11-.15-.19-.29-.17Z"/>
            <path class="cls-65" d="m68.77,23.65c-.16.02-.29.12-.26.24.03.12.19.21.35.19.14-.01.26-.13.23-.25-.03-.12-.19-.19-.33-.18Z"/>
            <path class="cls-69" d="m85.63,21.99c-.13.01-.23.1-.21.21.02.11.16.19.29.18.11-.01.21-.11.18-.22-.02-.11-.15-.17-.27-.16Z"/>
            <path class="cls-66" d="m86.55,26.28c-.13.02-.22.12-.2.23.02.11.15.17.28.15.13-.02.21-.11.19-.21-.02-.11-.14-.19-.27-.17Z"/>
            <path class="cls-70" d="m59.91,29.68c-.18.02-.32.15-.29.28.03.13.2.2.39.17.18-.02.29-.13.27-.26-.03-.13-.18-.22-.37-.2Z"/>
            <path class="cls-68" d="m69.8,28.42c-.16.02-.28.14-.25.26.03.12.18.19.35.17.14-.02.26-.12.24-.24-.03-.12-.19-.21-.33-.19Z"/>
            <path class="cls-67" d="m78.62,27.29c-.15.02-.25.13-.23.25.02.11.17.18.31.16.15-.02.23-.11.21-.23-.02-.11-.15-.2-.3-.18Z"/>
            <path class="cls-64" d="m93.71,25.36c-.12.02-.2.12-.18.22.02.1.14.16.26.15.12-.02.19-.1.17-.2-.02-.1-.13-.18-.25-.17Z"/>
            <path class="cls-62" d="m79.6,31.83c-.15.02-.25.12-.23.24.02.11.17.19.32.17.14-.02.23-.14.2-.25-.02-.11-.15-.18-.29-.16Z"/>
            <path class="cls-63" d="m70.83,33.21c-.16.03-.28.13-.26.25.03.12.19.2.35.18.16-.03.26-.15.23-.27-.03-.12-.16-.19-.32-.16Z"/>
            <path class="cls-60" d="m87.48,30.58c-.13.02-.23.12-.2.22.02.11.16.18.29.16.13-.02.2-.13.18-.24-.02-.11-.13-.17-.26-.15Z"/>
            <path class="cls-58" d="m61.01,34.76c-.18.03-.32.14-.29.27.03.13.21.21.39.18.18-.03.29-.16.26-.29-.03-.13-.18-.2-.36-.17Z"/>
            <path class="cls-61" d="m94.6,29.46c-.12.02-.2.11-.18.21.02.1.14.18.26.16.1-.02.18-.12.16-.22-.02-.1-.14-.16-.24-.14Z"/>
            <path class="cls-55" d="m95.48,33.54c-.12.02-.2.13-.18.23.02.1.14.16.26.14.12-.02.19-.11.16-.22s-.13-.18-.24-.15Z"/>
            <path class="cls-56" d="m71.86,37.98c-.16.03-.28.16-.25.28.03.12.18.18.34.15.14-.03.26-.14.23-.26s-.19-.2-.32-.17Z"/>
            <path class="cls-59" d="m88.4,34.87c-.13.02-.22.14-.2.25.02.11.15.16.28.14.11-.02.21-.12.18-.23-.02-.11-.15-.18-.27-.16Z"/>
            <path class="cls-57" d="m62.1,39.82c-.18.03-.31.17-.29.3.03.13.2.19.38.16.18-.03.29-.15.26-.28-.03-.13-.18-.21-.36-.18Z"/>
            <path class="cls-15" d="m80.58,36.34c-.14.03-.25.15-.22.26.03.11.17.17.31.15.14-.03.23-.13.21-.24-.02-.11-.15-.19-.29-.16Z"/>
            <path class="cls-16" d="m89.33,39.17c-.13.03-.22.13-.2.24.02.11.15.18.28.15.13-.03.2-.14.18-.25-.02-.11-.13-.16-.26-.14Z"/>
            <path class="cls-17" d="m96.36,37.64c-.12.03-.2.12-.18.22.02.1.14.17.26.14.12-.03.18-.13.16-.24-.02-.1-.12-.16-.24-.13Z"/>
            <path class="cls-18" d="m102.74,36.24c-.11.02-.18.11-.16.21.02.1.13.16.24.14.09-.02.16-.13.14-.22-.02-.1-.13-.15-.22-.13Z"/>
            <path class="cls-20" d="m63.19,44.9c-.18.04-.31.16-.29.29.03.13.21.21.39.17.18-.04.28-.18.26-.31-.03-.13-.18-.19-.35-.15Z"/>
            <path class="cls-21" d="m81.55,40.88c-.14.03-.25.14-.22.25.02.11.17.19.31.15.14-.03.22-.15.2-.27-.02-.11-.14-.17-.29-.14Z"/>
            <path class="cls-22" d="m72.89,42.77c-.16.03-.28.15-.25.27.03.12.19.2.35.16.16-.04.25-.16.23-.29-.03-.12-.16-.18-.32-.14Z"/>
            <path class="cls-24" d="m97.24,41.71c-.12.03-.2.14-.17.25.02.1.14.15.25.12.12-.03.18-.12.16-.23-.02-.1-.12-.17-.24-.14Z"/>
            <path class="cls-23" d="m64.28,49.96c-.18.04-.31.19-.28.32.03.13.2.18.38.14.18-.05.29-.17.26-.3-.03-.13-.18-.2-.36-.16Z"/>
            <path class="cls-19" d="m103.57,40.13c-.11.03-.18.13-.16.23.02.1.13.15.23.12.11-.03.17-.12.14-.21-.02-.1-.11-.16-.22-.14Z"/>
            <path class="cls-39" d="m82.53,45.39c-.14.04-.24.16-.22.28.02.11.16.17.31.13.14-.04.23-.14.2-.26-.02-.11-.15-.19-.29-.15Z"/>
            <path class="cls-35" d="m73.92,47.55c-.16.04-.27.18-.25.3.03.12.18.17.34.13.16-.04.25-.15.23-.28-.03-.12-.16-.19-.32-.16Z"/>
            <path class="cls-36" d="m90.26,43.46c-.13.03-.22.15-.19.26.02.11.15.16.28.13.13-.03.2-.13.18-.24-.02-.11-.14-.18-.26-.15Z"/>
            <path class="cls-34" d="m98.12,45.81c-.12.03-.2.13-.18.24.02.1.14.16.26.13.1-.03.18-.15.16-.25-.02-.1-.14-.15-.24-.12Z"/>
            <path class="cls-41" d="m91.18,47.76c-.13.04-.22.14-.2.25.02.11.15.17.28.13.13-.04.2-.16.18-.26-.02-.11-.13-.16-.26-.12Z"/>
            <path class="cls-37" d="m65.38,55.03c-.18.05-.31.18-.28.31.03.13.2.19.38.14.18-.05.28-.2.25-.32-.03-.13-.17-.18-.35-.13Z"/>
            <path class="cls-38" d="m83.5,49.93c-.14.04-.25.16-.22.27.02.11.17.18.31.14.12-.03.22-.17.2-.28-.02-.11-.16-.16-.28-.13Z"/>
            <path class="cls-43" d="m104.42,44.04c-.1.03-.18.12-.16.22.02.1.13.16.23.13.1-.03.16-.14.14-.23-.02-.1-.11-.15-.22-.12Z"/>
            <path class="cls-44" d="m74.95,52.34c-.16.04-.28.17-.25.29.03.12.18.19.34.14.16-.04.25-.18.22-.3-.03-.12-.16-.17-.32-.13Z"/>
            <path class="cls-40" d="m84.48,54.44c-.14.04-.24.18-.22.29.02.1.16.16.3.11.14-.04.22-.17.2-.27-.02-.11-.15-.18-.29-.14Z"/>
            <path class="cls-26" d="m105.25,47.93c-.1.03-.18.15-.15.24.02.09.13.14.23.11.09-.03.16-.14.14-.23-.02-.1-.13-.15-.22-.13Z"/>
            <path class="cls-29" d="m66.47,60.09c-.18.06-.3.21-.28.34.02.11.2.17.38.12.18-.06.28-.2.25-.31-.03-.13-.18-.2-.35-.14Z"/>
            <path class="cls-30" d="m92.11,52.05c-.13.04-.22.17-.19.28.02.09.15.15.28.11.13-.04.2-.16.18-.25-.02-.11-.13-.17-.26-.13Z"/>
            <path class="cls-27" d="m75.98,57.11c-.16.05-.27.2-.24.32.02.1.18.16.34.11.16-.05.25-.19.22-.29-.03-.12-.16-.19-.32-.14Z"/>
            <path class="cls-28" d="m99,49.89c-.11.04-.19.16-.17.26.02.09.14.15.25.11.11-.04.18-.15.16-.24-.02-.1-.12-.17-.24-.13Z"/>
            <path class="cls-33" d="m93.03,56.35c-.13.04-.22.16-.19.27.02.11.15.16.28.12.13-.04.2-.17.17-.28-.02-.11-.13-.15-.26-.11Z"/>
            <path class="cls-25" d="m85.45,58.98c-.14.05-.24.17-.22.29.02.11.17.17.31.12.12-.04.22-.18.19-.29-.02-.11-.16-.15-.28-.11Z"/>
            <path class="cls-31" d="m77.02,61.9c-.16.05-.27.19-.25.31.03.12.18.18.34.12.16-.05.24-.2.22-.32-.03-.12-.16-.17-.31-.11Z"/>
            <path class="cls-32" d="m106.1,51.83c-.1.04-.18.14-.16.24.02.1.13.15.23.12.1-.04.16-.15.14-.24-.02-.1-.11-.14-.21-.11Z"/>
            <path class="cls-42" d="m99.88,53.98c-.11.04-.2.15-.17.25.02.1.14.16.25.12.11-.04.18-.16.15-.26s-.12-.15-.23-.11Z"/>
            <path class="cls-52" d="m67.56,65.17c-.18.06-.31.2-.28.33.03.13.2.18.38.12.17-.06.28-.21.25-.34-.03-.13-.17-.18-.35-.12Z"/>
            <path class="cls-53" d="m100.76,58.06c-.11.04-.19.17-.17.27.02.1.14.14.25.1.1-.04.18-.15.16-.25-.02-.1-.14-.16-.24-.12Z"/>
            <path class="cls-45" d="m78.04,66.67c-.15.06-.27.21-.24.34.03.12.18.15.33.1.15-.06.25-.19.22-.31-.03-.12-.16-.18-.31-.12Z"/>
            <path class="cls-46" d="m68.66,70.22c-.17.07-.3.23-.27.36.03.13.2.16.37.09.17-.07.28-.2.25-.33-.03-.13-.18-.19-.35-.13Z"/>
            <path class="cls-47" d="m86.43,63.49c-.14.05-.24.2-.21.31.02.11.16.15.3.1.14-.05.22-.17.2-.28-.02-.11-.15-.18-.28-.12Z"/>
            <path class="cls-48" d="m93.96,60.64c-.12.05-.21.18-.19.29.02.11.15.14.27.1.12-.05.2-.16.17-.27-.02-.11-.13-.17-.26-.12Z"/>
            <path class="cls-54" d="m79.08,71.46c-.15.06-.27.2-.24.33.03.12.18.17.33.11.15-.06.24-.21.22-.33-.03-.12-.15-.16-.31-.1Z"/>
            <path class="cls-49" d="m101.64,62.16c-.11.05-.19.16-.17.26.02.1.14.15.25.1.1-.04.17-.17.15-.27-.02-.1-.13-.14-.23-.1Z"/>
            <path class="cls-50" d="m94.89,64.94c-.12.05-.21.17-.19.28.02.11.15.16.27.11.12-.05.19-.18.17-.29-.02-.11-.13-.15-.25-.1Z"/>
            <path class="cls-51" d="m69.75,75.3c-.17.07-.3.22-.27.35.03.13.2.18.37.1.17-.07.27-.23.24-.36-.03-.13-.17-.17-.34-.1Z"/>
            <path class="cls-73" d="m87.4,68.02c-.14.06-.24.19-.21.3.02.11.16.16.3.11.14-.06.22-.2.19-.31-.02-.11-.14-.15-.28-.1Z"/>
            <path class="cls-74" d="m102.52,66.24c-.11.05-.19.18-.17.28.02.09.13.13.25.08.1-.04.17-.17.15-.26-.02-.1-.14-.15-.23-.11Z"/>
            <path class="cls-75" d="m88.38,72.54c-.14.06-.23.21-.21.33.02.1.16.14.3.08.14-.06.21-.2.19-.3-.02-.11-.14-.17-.28-.11Z"/>
            <path class="cls-76" d="m95.81,69.23c-.12.05-.21.19-.19.3.02.09.15.14.27.08.12-.06.19-.19.17-.28-.02-.11-.13-.16-.25-.11Z"/>
            <path class="cls-71" d="m80.11,76.23c-.15.07-.26.23-.24.35.02.1.18.15.33.08.15-.07.24-.22.22-.32-.03-.12-.16-.17-.31-.11Z"/>
            <path class="cls-72" d="m70.84,80.36c-.17.08-.3.25-.27.38.02.11.2.15.37.08.17-.08.27-.24.25-.35-.03-.13-.17-.18-.35-.11Z"/>
            <path class="cls-91" d="m96.74,73.53c-.12.06-.21.19-.19.3.02.11.15.15.27.09.12-.06.19-.19.17-.3-.02-.11-.13-.14-.25-.08Z"/>
            <path class="cls-92" d="m89.36,77.07c-.14.07-.24.2-.21.32.02.11.16.16.3.09.12-.06.21-.21.19-.32-.02-.11-.16-.14-.28-.08Z"/>
            <path class="cls-90" d="m81.14,81.02c-.15.07-.26.22-.24.34.03.12.18.16.33.09.15-.07.24-.23.21-.35-.03-.12-.15-.15-.3-.08Z"/>
            <path class="cls-89" d="m71.94,85.43c-.17.08-.3.25-.27.37.03.13.2.17.37.08.17-.08.27-.25.24-.38-.03-.13-.17-.16-.34-.08Z"/>
            <path class="cls-85" d="m103.4,70.33c-.11.05-.19.17-.17.28.02.1.14.15.25.09.1-.05.17-.18.15-.28-.02-.1-.13-.13-.23-.09Z"/>
            <path class="cls-80" d="m97.66,77.82c-.12.06-.21.21-.19.3.02.11.15.15.27.08.1-.05.19-.2.17-.31-.02-.09-.14-.13-.25-.08Z"/>
            <path class="cls-88" d="m90.33,81.59c-.14.07-.23.23-.21.33.02.11.16.15.3.08.12-.06.21-.22.19-.33-.02-.1-.16-.14-.27-.08Z"/>
            <path class="cls-87" d="m82.17,85.79c-.15.08-.26.25-.24.35.03.12.18.16.33.08.15-.08.24-.24.21-.36-.02-.1-.15-.15-.3-.07Z"/>
            <path class="cls-82" d="m104.28,74.41c-.11.06-.19.19-.17.28.02.1.14.14.25.09.09-.05.17-.19.15-.29-.02-.09-.13-.13-.23-.08Z"/>
            <path class="cls-86" d="m91.31,86.12c-.13.07-.23.22-.21.33.02.11.16.15.3.08.13-.07.21-.23.18-.34-.02-.11-.14-.14-.27-.07Z"/>
            <path class="cls-77" d="m98.59,82.12c-.12.07-.21.2-.18.31.02.11.15.15.27.08.12-.07.19-.21.16-.32-.02-.11-.13-.14-.25-.07Z"/>
            <path class="cls-78" d="m105.17,78.5c-.11.06-.19.19-.17.29.02.1.14.14.25.08.09-.05.17-.19.15-.3-.02-.1-.13-.12-.23-.07Z"/>
            <path class="cls-79" d="m106.04,82.58c-.11.06-.18.21-.16.3.02.1.13.14.24.07.11-.06.17-.2.15-.3-.02-.09-.12-.13-.22-.07Z"/>
            <path class="cls-81" d="m99.51,86.4c-.12.07-.2.22-.18.32.02.11.15.14.27.07.1-.06.19-.21.16-.32-.02-.09-.14-.13-.25-.07Z"/>
            <path class="cls-13" d="m92.28,90.64c-.13.08-.23.24-.21.34.02.11.16.14.29.07.13-.08.21-.23.18-.35-.02-.1-.14-.14-.27-.06Z"/>
            <path class="cls-14" d="m100.44,90.69c-.12.07-.2.23-.18.34.02.11.15.14.27.06.12-.07.18-.22.16-.33-.02-.11-.13-.15-.25-.07Z"/>
            <path class="cls-10" d="m93.25,95.15c-.13.08-.23.25-.2.36.02.11.16.14.29.06.13-.08.21-.24.18-.35-.02-.11-.14-.15-.27-.07Z"/>
            <path class="cls-11" d="m101.36,94.99c-.12.08-.2.22-.18.33.02.11.15.13.26.06.12-.08.18-.23.16-.33-.02-.11-.12-.13-.24-.05Z"/>
            <path class="cls-12" d="m94.23,99.68c-.13.09-.23.24-.2.36.02.11.16.14.29.05.11-.07.2-.25.18-.36s-.15-.12-.27-.05Z"/>
          </g>
        </g>
        <path class="cls-5" d="m82.86,1.65l20.97,97.2s-.03.05-.05.03l-41.56-48.57L82.86,1.65Z"/>
      </g>
    </g>
  </g>
</svg>