<?xml version="1.0" encoding="UTF-8"?>
<svg id="Layer_2" data-name="Layer 2" xmlns="http://www.w3.org/2000/svg" xmlns:xlink="http://www.w3.org/1999/xlink" viewBox="0 0 162.46 160.75">
  <defs>
    <style>
      .cls-1 {
        stroke: url(#linear-gradient-8);
      }

      .cls-1, .cls-2, .cls-3, .cls-4, .cls-5, .cls-6, .cls-7, .cls-8, .cls-9, .cls-10, .cls-11, .cls-12, .cls-13, .cls-14, .cls-15, .cls-16, .cls-17, .cls-18, .cls-19, .cls-20, .cls-21, .cls-22, .cls-23, .cls-24, .cls-25, .cls-26, .cls-27, .cls-28, .cls-29, .cls-30, .cls-31, .cls-32, .cls-33, .cls-34, .cls-35, .cls-36, .cls-37, .cls-38, .cls-39, .cls-40, .cls-41, .cls-42, .cls-43, .cls-44, .cls-45, .cls-46, .cls-47, .cls-48, .cls-49, .cls-50, .cls-51, .cls-52, .cls-53, .cls-54, .cls-55, .cls-56, .cls-57, .cls-58, .cls-59, .cls-60, .cls-61, .cls-62, .cls-63, .cls-64, .cls-65, .cls-66, .cls-67, .cls-68, .cls-69, .cls-70, .cls-71, .cls-72, .cls-73, .cls-74, .cls-75, .cls-76, .cls-77, .cls-78, .cls-79, .cls-80, .cls-81, .cls-82, .cls-83, .cls-84, .cls-85, .cls-86, .cls-87, .cls-88, .cls-89, .cls-90, .cls-91, .cls-92, .cls-93, .cls-94, .cls-95, .cls-96 {
        fill: none;
        stroke-miterlimit: 10;
      }

      .cls-2 {
        stroke: url(#linear-gradient-9);
      }

      .cls-3 {
        stroke: url(#linear-gradient-5);
      }

      .cls-4 {
        stroke: url(#linear-gradient-6);
      }

      .cls-5 {
        stroke: url(#linear-gradient-7);
      }

      .cls-6 {
        stroke: url(#linear-gradient-2);
      }

      .cls-7 {
        stroke: url(#linear-gradient-4);
      }

      .cls-8 {
        stroke: url(#linear-gradient-3);
      }

      .cls-97 {
        clip-path: url(#clippath);
      }

      .cls-98 {
        fill: url(#Degradado_sin_nombre_4-2);
      }

      .cls-99 {
        fill: url(#Degradado_sin_nombre_4-3);
      }

      .cls-100 {
        filter: url(#drop-shadow-1);
      }

      .cls-9 {
        stroke: url(#linear-gradient);
      }

      .cls-10 {
        stroke: url(#linear-gradient-40);
      }

      .cls-11 {
        stroke: url(#linear-gradient-41);
      }

      .cls-12 {
        stroke: url(#linear-gradient-42);
      }

      .cls-13 {
        stroke: url(#linear-gradient-43);
      }

      .cls-14 {
        stroke: url(#linear-gradient-49);
      }

      .cls-15 {
        stroke: url(#linear-gradient-44);
      }

      .cls-16 {
        stroke: url(#linear-gradient-45);
      }

      .cls-17 {
        stroke: url(#linear-gradient-46);
      }

      .cls-18 {
        stroke: url(#linear-gradient-48);
      }

      .cls-19 {
        stroke: url(#linear-gradient-47);
      }

      .cls-20 {
        stroke: url(#linear-gradient-66);
      }

      .cls-21 {
        stroke: url(#linear-gradient-60);
      }

      .cls-22 {
        stroke: url(#linear-gradient-63);
      }

      .cls-23 {
        stroke: url(#linear-gradient-64);
      }

      .cls-24 {
        stroke: url(#linear-gradient-61);
      }

      .cls-25 {
        stroke: url(#linear-gradient-62);
      }

      .cls-26 {
        stroke: url(#linear-gradient-67);
      }

      .cls-27 {
        stroke: url(#linear-gradient-68);
      }

      .cls-28 {
        stroke: url(#linear-gradient-65);
      }

      .cls-29 {
        stroke: url(#linear-gradient-53);
      }

      .cls-30 {
        stroke: url(#linear-gradient-51);
      }

      .cls-31 {
        stroke: url(#linear-gradient-52);
      }

      .cls-32 {
        stroke: url(#linear-gradient-55);
      }

      .cls-33 {
        stroke: url(#linear-gradient-56);
      }

      .cls-34 {
        stroke: url(#linear-gradient-50);
      }

      .cls-35 {
        stroke: url(#linear-gradient-59);
      }

      .cls-36 {
        stroke: url(#linear-gradient-54);
      }

      .cls-37 {
        stroke: url(#linear-gradient-69);
      }

      .cls-38 {
        stroke: url(#linear-gradient-57);
      }

      .cls-39 {
        stroke: url(#linear-gradient-58);
      }

      .cls-40 {
        stroke: url(#linear-gradient-72);
      }

      .cls-41 {
        stroke: url(#linear-gradient-73);
      }

      .cls-42 {
        stroke: url(#linear-gradient-74);
      }

      .cls-43 {
        stroke: url(#linear-gradient-75);
      }

      .cls-44 {
        stroke: url(#linear-gradient-77);
      }

      .cls-45 {
        stroke: url(#linear-gradient-78);
      }

      .cls-46 {
        stroke: url(#linear-gradient-79);
      }

      .cls-47 {
        stroke: url(#linear-gradient-70);
      }

      .cls-48 {
        stroke: url(#linear-gradient-71);
      }

      .cls-49 {
        stroke: url(#linear-gradient-76);
      }

      .cls-50 {
        stroke: url(#linear-gradient-36);
      }

      .cls-51 {
        stroke: url(#linear-gradient-37);
      }

      .cls-52 {
        stroke: url(#linear-gradient-39);
      }

      .cls-53 {
        stroke: url(#linear-gradient-34);
      }

      .cls-54 {
        stroke: url(#linear-gradient-38);
      }

      .cls-55 {
        stroke: url(#linear-gradient-33);
      }

      .cls-56 {
        stroke: url(#linear-gradient-35);
      }

      .cls-57 {
        stroke: url(#linear-gradient-31);
      }

      .cls-58 {
        stroke: url(#linear-gradient-32);
      }

      .cls-59 {
        stroke: url(#linear-gradient-30);
      }

      .cls-60 {
        stroke: url(#linear-gradient-24);
      }

      .cls-61 {
        stroke: url(#linear-gradient-26);
      }

      .cls-62 {
        stroke: url(#linear-gradient-29);
      }

      .cls-63 {
        stroke: url(#linear-gradient-28);
      }

      .cls-64 {
        stroke: url(#linear-gradient-25);
      }

      .cls-65 {
        stroke: url(#linear-gradient-27);
      }

      .cls-66 {
        stroke: url(#linear-gradient-84);
      }

      .cls-67 {
        stroke: url(#linear-gradient-85);
      }

      .cls-68 {
        stroke: url(#linear-gradient-80);
      }

      .cls-69 {
        stroke: url(#linear-gradient-81);
      }

      .cls-70 {
        stroke: url(#linear-gradient-82);
      }

      .cls-71 {
        stroke: url(#linear-gradient-83);
      }

      .cls-72 {
        stroke: url(#linear-gradient-96);
      }

      .cls-73 {
        stroke: url(#linear-gradient-91);
      }

      .cls-74 {
        stroke: url(#linear-gradient-94);
      }

      .cls-75 {
        stroke: url(#linear-gradient-20);
      }

      .cls-76 {
        stroke: url(#linear-gradient-23);
      }

      .cls-77 {
        stroke: url(#linear-gradient-90);
      }

      .cls-78 {
        stroke: url(#linear-gradient-95);
      }

      .cls-79 {
        stroke: url(#linear-gradient-93);
      }

      .cls-80 {
        stroke: url(#linear-gradient-92);
      }

      .cls-81 {
        stroke: url(#linear-gradient-89);
      }

      .cls-82 {
        stroke: url(#linear-gradient-88);
      }

      .cls-83 {
        stroke: url(#linear-gradient-86);
      }

      .cls-84 {
        stroke: url(#linear-gradient-87);
      }

      .cls-85 {
        stroke: url(#linear-gradient-22);
      }

      .cls-86 {
        stroke: url(#linear-gradient-21);
      }

      .cls-87 {
        stroke: url(#linear-gradient-12);
      }

      .cls-88 {
        stroke: url(#linear-gradient-13);
      }

      .cls-89 {
        stroke: url(#linear-gradient-11);
      }

      .cls-90 {
        stroke: url(#linear-gradient-10);
      }

      .cls-91 {
        stroke: url(#linear-gradient-19);
      }

      .cls-92 {
        stroke: url(#linear-gradient-17);
      }

      .cls-93 {
        stroke: url(#linear-gradient-15);
      }

      .cls-94 {
        stroke: url(#linear-gradient-18);
      }

      .cls-95 {
        stroke: url(#linear-gradient-16);
      }

      .cls-96 {
        stroke: url(#linear-gradient-14);
      }

      .cls-101 {
        fill: url(#Degradado_sin_nombre_6);
      }

      .cls-102 {
        fill: url(#Degradado_sin_nombre_4);
      }
    </style>
    <filter id="drop-shadow-1" filterUnits="userSpaceOnUse">
      <feOffset dx="5" dy="10"/>
      <feGaussianBlur result="blur" stdDeviation="7"/>
      <feFlood flood-color="#000" flood-opacity=".4"/>
      <feComposite in2="blur" operator="in"/>
      <feComposite in="SourceGraphic"/>
    </filter>
    <linearGradient id="Degradado_sin_nombre_4" data-name="Degradado sin nombre 4" x1="630.68" y1="-782.76" x2="598.18" y2="-912.74" gradientTransform="translate(185.96 1130.36) rotate(-41.47)" gradientUnits="userSpaceOnUse">
      <stop offset="0" stop-color="#313337"/>
      <stop offset=".02" stop-color="#303235"/>
      <stop offset=".3" stop-color="#222325"/>
      <stop offset=".61" stop-color="#1a1a1b"/>
      <stop offset="1" stop-color="#181818"/>
    </linearGradient>
    <linearGradient id="Degradado_sin_nombre_4-2" data-name="Degradado sin nombre 4" x1="1130.37" y1="-566.06" x2="1219.38" y2="-634.19" gradientTransform="translate(119.41 1386.63) rotate(-66.57)" xlink:href="#Degradado_sin_nombre_4"/>
    <linearGradient id="linear-gradient" x1=".63" y1="80.38" x2="61.33" y2="80.38" gradientUnits="userSpaceOnUse">
      <stop offset="0" stop-color="#00c20d" stop-opacity="0"/>
      <stop offset=".26" stop-color="#00a60b" stop-opacity="0"/>
      <stop offset=".28" stop-color="#00a40b" stop-opacity=".04"/>
      <stop offset=".39" stop-color="#059e0c" stop-opacity=".29"/>
      <stop offset=".48" stop-color="#089a0c" stop-opacity=".44"/>
      <stop offset=".54" stop-color="#0a990d" stop-opacity=".5"/>
      <stop offset=".64" stop-color="#079e0c" stop-opacity=".64"/>
      <stop offset=".84" stop-color="#02ab0c" stop-opacity=".99"/>
      <stop offset=".84" stop-color="#02ac0c"/>
      <stop offset="1" stop-color="#9f9"/>
    </linearGradient>
    <linearGradient id="Degradado_sin_nombre_4-3" data-name="Degradado sin nombre 4" x1="1164.94" y1="-514.94" x2="1184.72" y2="-553.76" gradientTransform="translate(119.41 1386.63) rotate(-66.57)" xlink:href="#Degradado_sin_nombre_4"/>
    <linearGradient id="linear-gradient-2" x1="1089.88" y1="-539.88" x2="1259.8" y2="-539.88" gradientTransform="translate(119.41 1386.63) rotate(-66.57)" xlink:href="#linear-gradient"/>
    <linearGradient id="Degradado_sin_nombre_6" data-name="Degradado sin nombre 6" x1="1207.37" y1="-618.27" x2="1234.28" y2="-503.06" gradientTransform="translate(119.41 1386.63) rotate(-66.57)" gradientUnits="userSpaceOnUse">
      <stop offset="0" stop-color="#313337"/>
      <stop offset="1" stop-color="#181818"/>
    </linearGradient>
    <linearGradient id="linear-gradient-3" x1="1189.69" y1="-579.76" x2="1258.98" y2="-579.76" gradientTransform="translate(119.41 1386.63) rotate(-66.57)" xlink:href="#linear-gradient"/>
    <linearGradient id="linear-gradient-4" x1="0" y1="32.65" x2="162.46" y2="32.65" xlink:href="#linear-gradient"/>
    <clipPath id="clippath">
      <polygon class="cls-7" points="1.45 1.58 160.42 33.24 60.76 63.94 1.45 1.58"/>
    </clipPath>
    <linearGradient id="linear-gradient-5" x1="1221.52" y1="-653.62" x2="1223.32" y2="-653.62" gradientTransform="translate(119.41 1386.63) rotate(-66.57)" xlink:href="#linear-gradient"/>
    <linearGradient id="linear-gradient-6" x1="1223.03" y1="-646.63" x2="1224.83" y2="-646.63" gradientTransform="translate(119.41 1386.63) rotate(-66.57)" xlink:href="#linear-gradient"/>
    <linearGradient id="linear-gradient-7" x1="1211.35" y1="-639.08" x2="1213.23" y2="-639.08" gradientTransform="translate(119.41 1386.63) rotate(-66.57)" xlink:href="#linear-gradient"/>
    <linearGradient id="linear-gradient-8" x1="1224.54" y1="-639.63" x2="1226.33" y2="-639.63" gradientTransform="translate(119.41 1386.63) rotate(-66.57)" xlink:href="#linear-gradient"/>
    <linearGradient id="linear-gradient-9" x1="1196.66" y1="-638.48" x2="1198.64" y2="-638.48" gradientTransform="translate(119.41 1386.63) rotate(-66.57)" xlink:href="#linear-gradient"/>
    <linearGradient id="linear-gradient-10" x1="1226.05" y1="-632.64" x2="1227.84" y2="-632.64" gradientTransform="translate(119.41 1386.63) rotate(-66.57)" xlink:href="#linear-gradient"/>
    <linearGradient id="linear-gradient-11" x1="1212.94" y1="-631.73" x2="1214.81" y2="-631.73" gradientTransform="translate(119.41 1386.63) rotate(-66.57)" xlink:href="#linear-gradient"/>
    <linearGradient id="linear-gradient-12" x1="1198.34" y1="-630.71" x2="1200.31" y2="-630.71" gradientTransform="translate(119.41 1386.63) rotate(-66.57)" xlink:href="#linear-gradient"/>
    <linearGradient id="linear-gradient-13" x1="1239.33" y1="-626.81" x2="1241.04" y2="-626.81" gradientTransform="translate(119.41 1386.63) rotate(-66.57)" xlink:href="#linear-gradient"/>
    <linearGradient id="linear-gradient-14" x1="1214.53" y1="-624.35" x2="1216.4" y2="-624.35" gradientTransform="translate(119.41 1386.63) rotate(-66.57)" xlink:href="#linear-gradient"/>
    <linearGradient id="linear-gradient-15" x1="1200.02" y1="-622.91" x2="1201.99" y2="-622.91" gradientTransform="translate(119.41 1386.63) rotate(-66.57)" xlink:href="#linear-gradient"/>
    <linearGradient id="linear-gradient-16" x1="1227.56" y1="-625.64" x2="1229.34" y2="-625.64" gradientTransform="translate(119.41 1386.63) rotate(-66.57)" xlink:href="#linear-gradient"/>
    <linearGradient id="linear-gradient-17" x1="1229.07" y1="-618.66" x2="1230.85" y2="-618.66" gradientTransform="translate(119.41 1386.63) rotate(-66.57)" xlink:href="#linear-gradient"/>
    <linearGradient id="linear-gradient-18" x1="1185.55" y1="-613.06" x2="1187.63" y2="-613.06" gradientTransform="translate(119.41 1386.63) rotate(-66.57)" xlink:href="#linear-gradient"/>
    <linearGradient id="linear-gradient-19" x1="1201.7" y1="-615.14" x2="1203.66" y2="-615.14" gradientTransform="translate(119.41 1386.63) rotate(-66.57)" xlink:href="#linear-gradient"/>
    <linearGradient id="linear-gradient-20" x1="1216.12" y1="-616.99" x2="1217.99" y2="-616.99" gradientTransform="translate(119.41 1386.63) rotate(-66.57)" xlink:href="#linear-gradient"/>
    <linearGradient id="linear-gradient-21" x1="1240.77" y1="-620.16" x2="1242.47" y2="-620.16" gradientTransform="translate(119.41 1386.63) rotate(-66.57)" xlink:href="#linear-gradient"/>
    <linearGradient id="linear-gradient-22" x1="1217.71" y1="-609.61" x2="1219.57" y2="-609.61" gradientTransform="translate(119.41 1386.63) rotate(-66.57)" xlink:href="#linear-gradient"/>
    <linearGradient id="linear-gradient-23" x1="1203.38" y1="-607.34" x2="1205.34" y2="-607.34" gradientTransform="translate(119.41 1386.63) rotate(-66.57)" xlink:href="#linear-gradient"/>
    <linearGradient id="linear-gradient-24" x1="1230.58" y1="-611.65" x2="1232.35" y2="-611.65" gradientTransform="translate(119.41 1386.63) rotate(-66.57)" xlink:href="#linear-gradient"/>
    <linearGradient id="linear-gradient-25" x1="1187.33" y1="-604.79" x2="1189.4" y2="-604.79" gradientTransform="translate(119.41 1386.63) rotate(-66.57)" xlink:href="#linear-gradient"/>
    <linearGradient id="linear-gradient-26" x1="1242.2" y1="-613.49" x2="1243.9" y2="-613.49" gradientTransform="translate(119.41 1386.63) rotate(-66.57)" xlink:href="#linear-gradient"/>
    <linearGradient id="linear-gradient-27" x1="1243.64" y1="-606.85" x2="1245.34" y2="-606.85" gradientTransform="translate(119.41 1386.63) rotate(-66.57)" xlink:href="#linear-gradient"/>
    <linearGradient id="linear-gradient-28" x1="1205.07" y1="-599.56" x2="1207.02" y2="-599.56" gradientTransform="translate(119.41 1386.63) rotate(-66.57)" xlink:href="#linear-gradient"/>
    <linearGradient id="linear-gradient-29" x1="1232.09" y1="-604.67" x2="1233.86" y2="-604.67" gradientTransform="translate(119.41 1386.63) rotate(-66.57)" xlink:href="#linear-gradient"/>
    <linearGradient id="linear-gradient-30" x1="1189.12" y1="-596.55" x2="1191.18" y2="-596.55" gradientTransform="translate(119.41 1386.63) rotate(-66.57)" xlink:href="#linear-gradient"/>
    <linearGradient id="linear-gradient-31" x1="1219.3" y1="-602.25" x2="1221.16" y2="-602.25" gradientTransform="translate(119.41 1386.63) rotate(-66.57)" xlink:href="#linear-gradient"/>
    <linearGradient id="linear-gradient-32" x1="1233.6" y1="-597.66" x2="1235.36" y2="-597.66" gradientTransform="translate(119.41 1386.63) rotate(-66.57)" xlink:href="#linear-gradient"/>
    <linearGradient id="linear-gradient-33" x1="1245.07" y1="-600.18" x2="1246.77" y2="-600.18" gradientTransform="translate(119.41 1386.63) rotate(-66.57)" xlink:href="#linear-gradient"/>
    <linearGradient id="linear-gradient-34" x1="1190.9" y1="-588.29" x2="1192.96" y2="-588.29" gradientTransform="translate(119.41 1386.63) rotate(-66.57)" xlink:href="#linear-gradient"/>
    <linearGradient id="linear-gradient-35" x1="1220.89" y1="-594.87" x2="1222.74" y2="-594.87" gradientTransform="translate(119.41 1386.63) rotate(-66.57)" xlink:href="#linear-gradient"/>
    <linearGradient id="linear-gradient-36" x1="1206.75" y1="-591.77" x2="1208.69" y2="-591.77" gradientTransform="translate(119.41 1386.63) rotate(-66.57)" xlink:href="#linear-gradient"/>
    <linearGradient id="linear-gradient-37" x1="1246.51" y1="-593.54" x2="1248.2" y2="-593.54" gradientTransform="translate(119.41 1386.63) rotate(-66.57)" xlink:href="#linear-gradient"/>
    <linearGradient id="linear-gradient-38" x1="1192.68" y1="-580.05" x2="1194.74" y2="-580.05" gradientTransform="translate(119.41 1386.63) rotate(-66.57)" xlink:href="#linear-gradient"/>
    <linearGradient id="linear-gradient-39" x1="1222.49" y1="-587.52" x2="1224.33" y2="-587.52" gradientTransform="translate(119.41 1386.63) rotate(-66.57)" xlink:href="#linear-gradient"/>
    <linearGradient id="linear-gradient-40" x1="1208.43" y1="-583.99" x2="1210.37" y2="-583.99" gradientTransform="translate(119.41 1386.63) rotate(-66.57)" xlink:href="#linear-gradient"/>
    <linearGradient id="linear-gradient-41" x1="1235.11" y1="-590.68" x2="1236.87" y2="-590.68" gradientTransform="translate(119.41 1386.63) rotate(-66.57)" xlink:href="#linear-gradient"/>
    <linearGradient id="linear-gradient-42" x1="1247.95" y1="-586.87" x2="1249.63" y2="-586.87" gradientTransform="translate(119.41 1386.63) rotate(-66.57)" xlink:href="#linear-gradient"/>
    <linearGradient id="linear-gradient-43" x1="1236.62" y1="-583.68" x2="1238.37" y2="-583.68" gradientTransform="translate(119.41 1386.63) rotate(-66.57)" xlink:href="#linear-gradient"/>
    <linearGradient id="linear-gradient-44" x1="1194.46" y1="-571.78" x2="1196.51" y2="-571.78" gradientTransform="translate(119.41 1386.63) rotate(-66.57)" xlink:href="#linear-gradient"/>
    <linearGradient id="linear-gradient-45" x1="1224.07" y1="-580.13" x2="1225.91" y2="-580.13" gradientTransform="translate(119.41 1386.63) rotate(-66.57)" xlink:href="#linear-gradient"/>
    <linearGradient id="linear-gradient-46" x1="1210.11" y1="-576.2" x2="1212.04" y2="-576.2" gradientTransform="translate(119.41 1386.63) rotate(-66.57)" xlink:href="#linear-gradient"/>
    <linearGradient id="linear-gradient-47" x1="1225.67" y1="-572.78" x2="1227.5" y2="-572.78" gradientTransform="translate(119.41 1386.63) rotate(-66.57)" xlink:href="#linear-gradient"/>
    <linearGradient id="linear-gradient-48" x1="1196.25" y1="-563.55" x2="1198.28" y2="-563.55" gradientTransform="translate(119.41 1386.63) rotate(-66.57)" xlink:href="#linear-gradient"/>
    <linearGradient id="linear-gradient-49" x1="1238.13" y1="-576.69" x2="1239.88" y2="-576.69" gradientTransform="translate(119.41 1386.63) rotate(-66.57)" xlink:href="#linear-gradient"/>
    <linearGradient id="linear-gradient-50" x1="1211.79" y1="-568.43" x2="1213.72" y2="-568.43" gradientTransform="translate(119.41 1386.63) rotate(-66.57)" xlink:href="#linear-gradient"/>
    <linearGradient id="linear-gradient-51" x1="1249.38" y1="-580.23" x2="1251.06" y2="-580.23" gradientTransform="translate(119.41 1386.63) rotate(-66.57)" xlink:href="#linear-gradient"/>
    <linearGradient id="linear-gradient-52" x1="1239.64" y1="-569.69" x2="1241.38" y2="-569.69" gradientTransform="translate(119.41 1386.63) rotate(-66.57)" xlink:href="#linear-gradient"/>
    <linearGradient id="linear-gradient-53" x1="1227.26" y1="-565.4" x2="1229.08" y2="-565.4" gradientTransform="translate(119.41 1386.63) rotate(-66.57)" xlink:href="#linear-gradient"/>
    <linearGradient id="linear-gradient-54" x1="1213.47" y1="-560.63" x2="1215.39" y2="-560.63" gradientTransform="translate(119.41 1386.63) rotate(-66.57)" xlink:href="#linear-gradient"/>
    <linearGradient id="linear-gradient-55" x1="1260.97" y1="-577.08" x2="1262.58" y2="-577.08" gradientTransform="translate(119.41 1386.63) rotate(-66.57)" xlink:href="#linear-gradient"/>
    <linearGradient id="linear-gradient-56" x1="1250.82" y1="-573.56" x2="1252.49" y2="-573.56" gradientTransform="translate(119.41 1386.63) rotate(-66.57)" xlink:href="#linear-gradient"/>
    <linearGradient id="linear-gradient-57" x1="1198.03" y1="-555.28" x2="1200.06" y2="-555.28" gradientTransform="translate(119.41 1386.63) rotate(-66.57)" xlink:href="#linear-gradient"/>
    <linearGradient id="linear-gradient-58" x1="1252.26" y1="-566.92" x2="1253.93" y2="-566.92" gradientTransform="translate(119.41 1386.63) rotate(-66.57)" xlink:href="#linear-gradient"/>
    <linearGradient id="linear-gradient-59" x1="1215.15" y1="-552.85" x2="1217.07" y2="-552.85" gradientTransform="translate(119.41 1386.63) rotate(-66.57)" xlink:href="#linear-gradient"/>
    <linearGradient id="linear-gradient-60" x1="1262.34" y1="-570.74" x2="1263.95" y2="-570.74" gradientTransform="translate(119.41 1386.63) rotate(-66.57)" xlink:href="#linear-gradient"/>
    <linearGradient id="linear-gradient-61" x1="1199.81" y1="-547.04" x2="1201.84" y2="-547.04" gradientTransform="translate(119.41 1386.63) rotate(-66.57)" xlink:href="#linear-gradient"/>
    <linearGradient id="linear-gradient-62" x1="1228.85" y1="-558.05" x2="1230.67" y2="-558.05" gradientTransform="translate(119.41 1386.63) rotate(-66.57)" xlink:href="#linear-gradient"/>
    <linearGradient id="linear-gradient-63" x1="1241.15" y1="-562.71" x2="1242.89" y2="-562.71" gradientTransform="translate(119.41 1386.63) rotate(-66.57)" xlink:href="#linear-gradient"/>
    <linearGradient id="linear-gradient-64" x1="1216.83" y1="-545.06" x2="1218.74" y2="-545.06" gradientTransform="translate(119.41 1386.63) rotate(-66.57)" xlink:href="#linear-gradient"/>
    <linearGradient id="linear-gradient-65" x1="1253.69" y1="-560.25" x2="1255.36" y2="-560.25" gradientTransform="translate(119.41 1386.63) rotate(-66.57)" xlink:href="#linear-gradient"/>
    <linearGradient id="linear-gradient-66" x1="1242.65" y1="-555.71" x2="1244.39" y2="-555.71" gradientTransform="translate(119.41 1386.63) rotate(-66.57)" xlink:href="#linear-gradient"/>
    <linearGradient id="linear-gradient-67" x1="1263.71" y1="-564.38" x2="1265.31" y2="-564.38" gradientTransform="translate(119.41 1386.63) rotate(-66.57)" xlink:href="#linear-gradient"/>
    <linearGradient id="linear-gradient-68" x1="1201.59" y1="-538.78" x2="1203.61" y2="-538.78" gradientTransform="translate(119.41 1386.63) rotate(-66.57)" xlink:href="#linear-gradient"/>
    <linearGradient id="linear-gradient-69" x1="1230.44" y1="-550.67" x2="1232.25" y2="-550.67" gradientTransform="translate(119.41 1386.63) rotate(-66.57)" xlink:href="#linear-gradient"/>
    <linearGradient id="linear-gradient-70" x1="1255.13" y1="-553.61" x2="1256.79" y2="-553.61" gradientTransform="translate(119.41 1386.63) rotate(-66.57)" xlink:href="#linear-gradient"/>
    <linearGradient id="linear-gradient-71" x1="1232.03" y1="-543.31" x2="1233.84" y2="-543.31" gradientTransform="translate(119.41 1386.63) rotate(-66.57)" xlink:href="#linear-gradient"/>
    <linearGradient id="linear-gradient-72" x1="1244.17" y1="-548.72" x2="1245.9" y2="-548.72" gradientTransform="translate(119.41 1386.63) rotate(-66.57)" xlink:href="#linear-gradient"/>
    <linearGradient id="linear-gradient-73" x1="1218.51" y1="-537.29" x2="1220.42" y2="-537.29" gradientTransform="translate(119.41 1386.63) rotate(-66.57)" xlink:href="#linear-gradient"/>
    <linearGradient id="linear-gradient-74" x1="1203.38" y1="-530.54" x2="1205.39" y2="-530.54" gradientTransform="translate(119.41 1386.63) rotate(-66.57)" xlink:href="#linear-gradient"/>
    <linearGradient id="linear-gradient-75" x1="1245.67" y1="-541.72" x2="1247.4" y2="-541.72" gradientTransform="translate(119.41 1386.63) rotate(-66.57)" xlink:href="#linear-gradient"/>
    <linearGradient id="linear-gradient-76" x1="1233.62" y1="-535.93" x2="1235.42" y2="-535.93" gradientTransform="translate(119.41 1386.63) rotate(-66.57)" xlink:href="#linear-gradient"/>
    <linearGradient id="linear-gradient-77" x1="1220.19" y1="-529.5" x2="1222.09" y2="-529.5" gradientTransform="translate(119.41 1386.63) rotate(-66.57)" xlink:href="#linear-gradient"/>
    <linearGradient id="linear-gradient-78" x1="1205.16" y1="-522.28" x2="1207.16" y2="-522.28" gradientTransform="translate(119.41 1386.63) rotate(-66.57)" xlink:href="#linear-gradient"/>
    <linearGradient id="linear-gradient-79" x1="1256.56" y1="-546.95" x2="1258.22" y2="-546.95" gradientTransform="translate(119.41 1386.63) rotate(-66.57)" xlink:href="#linear-gradient"/>
    <linearGradient id="linear-gradient-80" x1="1247.18" y1="-534.74" x2="1248.9" y2="-534.74" gradientTransform="translate(119.41 1386.63) rotate(-66.57)" xlink:href="#linear-gradient"/>
    <linearGradient id="linear-gradient-81" x1="1235.21" y1="-528.58" x2="1237" y2="-528.58" gradientTransform="translate(119.41 1386.63) rotate(-66.57)" xlink:href="#linear-gradient"/>
    <linearGradient id="linear-gradient-82" x1="1221.87" y1="-521.72" x2="1223.76" y2="-521.72" gradientTransform="translate(119.41 1386.63) rotate(-66.57)" xlink:href="#linear-gradient"/>
    <linearGradient id="linear-gradient-83" x1="1258" y1="-540.3" x2="1259.65" y2="-540.3" gradientTransform="translate(119.41 1386.63) rotate(-66.57)" xlink:href="#linear-gradient"/>
    <linearGradient id="linear-gradient-84" x1="1236.8" y1="-521.2" x2="1238.59" y2="-521.2" gradientTransform="translate(119.41 1386.63) rotate(-66.57)" xlink:href="#linear-gradient"/>
    <linearGradient id="linear-gradient-85" x1="1248.69" y1="-527.74" x2="1250.41" y2="-527.74" gradientTransform="translate(119.41 1386.63) rotate(-66.57)" xlink:href="#linear-gradient"/>
    <linearGradient id="linear-gradient-86" x1="1259.43" y1="-533.64" x2="1261.08" y2="-533.64" gradientTransform="translate(119.41 1386.63) rotate(-66.57)" xlink:href="#linear-gradient"/>
    <linearGradient id="linear-gradient-87" x1="1260.87" y1="-527" x2="1262.51" y2="-527" gradientTransform="translate(119.41 1386.63) rotate(-66.57)" xlink:href="#linear-gradient"/>
    <linearGradient id="linear-gradient-88" x1="1250.2" y1="-520.75" x2="1251.91" y2="-520.75" gradientTransform="translate(119.41 1386.63) rotate(-66.57)" xlink:href="#linear-gradient"/>
    <linearGradient id="linear-gradient-89" x1="1238.39" y1="-513.85" x2="1240.17" y2="-513.85" gradientTransform="translate(119.41 1386.63) rotate(-66.57)" xlink:href="#linear-gradient"/>
    <linearGradient id="linear-gradient-90" x1="1251.71" y1="-513.76" x2="1253.42" y2="-513.76" gradientTransform="translate(119.41 1386.63) rotate(-66.57)" xlink:href="#linear-gradient"/>
    <linearGradient id="linear-gradient-91" x1="1239.98" y1="-506.48" x2="1241.76" y2="-506.48" gradientTransform="translate(119.41 1386.63) rotate(-66.57)" xlink:href="#linear-gradient"/>
    <linearGradient id="linear-gradient-92" x1="1262.31" y1="-520.34" x2="1263.95" y2="-520.34" gradientTransform="translate(119.41 1386.63) rotate(-66.57)" xlink:href="#linear-gradient"/>
    <linearGradient id="linear-gradient-93" x1="1253.22" y1="-506.78" x2="1254.92" y2="-506.78" gradientTransform="translate(119.41 1386.63) rotate(-66.57)" xlink:href="#linear-gradient"/>
    <linearGradient id="linear-gradient-94" x1="1241.56" y1="-499.12" x2="1243.34" y2="-499.12" gradientTransform="translate(119.41 1386.63) rotate(-66.57)" xlink:href="#linear-gradient"/>
    <linearGradient id="linear-gradient-95" x1="1263.74" y1="-513.69" x2="1265.38" y2="-513.69" gradientTransform="translate(119.41 1386.63) rotate(-66.57)" xlink:href="#linear-gradient"/>
    <linearGradient id="linear-gradient-96" x1="0" y1="32.65" x2="162.46" y2="32.65" xlink:href="#linear-gradient"/>
  </defs>
  <g id="OBJECTS">
    <g class="cls-100">
      <polygon class="cls-102" points="31.92 158.68 1.45 1.58 160.42 33.24 31.92 158.68"/>
      <polygon class="cls-98" points="31.92 158.68 60.76 63.94 1.45 1.58 31.92 158.68"/>
      <path class="cls-9" d="m2.75,4.11l57.12,60.05-27.78,91.23L2.75,4.11M1.45,1.58l30.47,157.1,28.85-94.74L1.45,1.58h0Z"/>
      <polygon class="cls-99" points="60.76 63.94 160.42 33.24 31.92 158.68 60.76 63.94"/>
      <path class="cls-6" d="m61.4,64.58l96.1-29.6-123.93,120.97,27.82-91.36m-.64-.64l-28.85,94.74L160.42,33.24l-99.66,30.7h0Z"/>
      <polygon class="cls-101" points="1.45 1.58 160.42 33.24 60.76 63.94 1.45 1.58"/>
      <path class="cls-8" d="m3.76,2.86l153.42,30.55-96.18,29.63L3.76,2.86M1.45,1.58l59.31,62.36,99.66-30.7L1.45,1.58h0Z"/>
      <g>
        <g class="cls-97">
          <g>
            <path class="cls-3" d="m5.57,5.03c-.09.2-.02.4.13.43.18.04.41-.11.5-.31.09-.2,0-.38-.17-.41-.15-.03-.37.08-.46.29Z"/>
            <path class="cls-4" d="m12.57,6.43c-.09.2,0,.41.17.44.18.03.38-.11.46-.32.08-.2.02-.37-.16-.41-.18-.04-.39.08-.47.28Z"/>
            <path class="cls-5" d="m14.85,20.1c-.09.23,0,.45.16.48.19.04.42-.13.51-.35.09-.23-.01-.42-.2-.46-.16-.03-.38.1-.47.32Z"/>
            <path class="cls-1" d="m19.6,7.83c-.08.2,0,.41.16.44.18.04.4-.11.47-.31.08-.2-.02-.38-.19-.42-.15-.03-.36.09-.44.29Z"/>
            <path class="cls-2" d="m9.57,33.77c-.1.25-.01.5.16.54.2.04.45-.14.55-.4.1-.25,0-.47-.2-.51-.17-.03-.41.11-.5.37Z"/>
            <path class="cls-90" d="m26.6,9.22c-.07.2.02.41.19.45.18.04.37-.12.44-.32.06-.18,0-.38-.18-.41-.18-.04-.39.11-.45.29Z"/>
            <path class="cls-89" d="m22.23,21.58c-.08.23.01.46.2.49.19.04.39-.13.47-.36.08-.23,0-.42-.18-.45-.19-.04-.4.09-.48.32Z"/>
            <path class="cls-87" d="m17.36,35.33c-.09.25,0,.51.2.55.2.04.42-.15.5-.4.09-.25.01-.46-.18-.5-.2-.04-.43.11-.52.36Z"/>
            <path class="cls-88" d="m37.24-.6c-.06.19,0,.37.18.4.17.03.36-.1.42-.29.06-.19-.04-.35-.21-.38-.17-.03-.33.08-.39.26Z"/>
            <path class="cls-96" d="m29.64,23.05c-.07.23,0,.45.18.49.19.04.41-.13.48-.36.07-.23-.03-.42-.22-.46-.19-.04-.37.1-.45.33Z"/>
            <path class="cls-93" d="m25.19,36.88c-.08.26-.01.5.19.54.2.04.44-.15.52-.4.07-.22-.03-.47-.22-.51-.2-.04-.41.15-.48.37Z"/>
            <path class="cls-95" d="m33.63,10.63c-.07.21,0,.41.18.44.18.04.39-.11.45-.32.06-.18-.04-.38-.21-.42-.18-.03-.36.12-.42.29Z"/>
            <path class="cls-92" d="m40.64,12.02c-.06.21.04.42.22.45.18.04.35-.12.41-.33.06-.21-.02-.38-.2-.42-.18-.04-.37.08-.43.29Z"/>
            <path class="cls-94" d="m28.47,54.02c-.08.29.02.57.23.62.21.04.43-.18.51-.47.08-.29,0-.52-.21-.57-.21-.04-.45.13-.53.42Z"/>
            <path class="cls-91" d="m32.99,38.44c-.07.26.03.51.23.55.2.04.4-.15.47-.41.06-.22-.01-.47-.21-.51-.2-.04-.43.15-.49.37Z"/>
            <path class="cls-75" d="m37.02,24.52c-.07.23.04.46.22.5.19.04.38-.13.44-.36.07-.23-.02-.42-.2-.46-.19-.04-.39.1-.46.33Z"/>
            <path class="cls-86" d="m43.91.73c-.05.19.04.38.21.41.17.03.33-.1.39-.29.05-.19-.03-.35-.19-.38-.17-.03-.35.07-.41.26Z"/>
            <path class="cls-85" d="m44.42,26c-.06.23.02.46.21.49.19.04.4-.13.46-.36.06-.23-.06-.43-.24-.47-.19-.04-.36.1-.42.33Z"/>
            <path class="cls-76" d="m40.81,40c-.07.26.02.51.21.55.2.04.42-.15.49-.41.07-.26-.06-.48-.25-.52-.2-.04-.39.12-.45.38Z"/>
            <path class="cls-60" d="m47.67,13.42c-.05.21.03.41.2.45.18.04.37-.11.43-.32.05-.21-.06-.39-.24-.42-.18-.04-.34.09-.4.3Z"/>
            <path class="cls-64" d="m36.77,55.68c-.07.29,0,.57.22.61.21.04.45-.17.53-.46.07-.29-.05-.53-.26-.58-.21-.04-.41.14-.49.43Z"/>
            <path class="cls-61" d="m50.6,2.07c-.05.19.03.38.2.41.17.03.35-.1.4-.29.04-.16-.06-.35-.23-.39-.17-.03-.33.1-.37.27Z"/>
            <path class="cls-65" d="m57.26,3.39c-.04.19.06.38.23.42.17.03.33-.11.37-.3.04-.19-.05-.35-.22-.38-.17-.03-.34.07-.39.26Z"/>
            <path class="cls-63" d="m48.61,41.55c-.06.26.06.52.26.56.2.04.39-.16.45-.42.05-.22-.04-.47-.24-.51-.2-.04-.42.15-.47.37Z"/>
            <path class="cls-62" d="m54.67,14.82c-.05.21.06.42.24.46.18.04.34-.12.39-.33.04-.18-.05-.39-.22-.42-.18-.04-.37.11-.41.29Z"/>
            <path class="cls-59" d="m45.03,57.32c-.07.29.05.58.27.62.21.04.42-.18.48-.47.07-.29-.04-.53-.25-.57-.21-.04-.43.13-.5.42Z"/>
            <path class="cls-57" d="m51.8,27.47c-.05.23.06.47.25.5.19.04.37-.14.42-.37.05-.23-.04-.43-.23-.46-.19-.04-.38.1-.44.33Z"/>
            <path class="cls-58" d="m61.7,16.22c-.04.21.05.42.22.45.18.04.37-.12.41-.33.04-.21-.08-.39-.26-.43-.18-.03-.33.09-.37.3Z"/>
            <path class="cls-55" d="m63.95,4.73c-.04.19.05.38.22.41.17.03.35-.1.38-.29.04-.19-.08-.36-.25-.39-.17-.03-.31.08-.35.27Z"/>
            <path class="cls-53" d="m53.32,58.98c-.06.29.04.58.25.62.21.04.44-.18.5-.47.06-.29-.08-.54-.29-.58-.21-.04-.4.14-.45.43Z"/>
            <path class="cls-56" d="m59.21,28.95c-.05.23.05.46.23.5.19.04.39-.13.43-.37.05-.23-.08-.43-.27-.47-.18-.04-.35.1-.4.34Z"/>
            <path class="cls-50" d="m56.43,43.11c-.05.26.04.51.24.55.2.04.41-.15.46-.41.05-.26-.08-.48-.28-.52-.19-.04-.37.12-.42.38Z"/>
            <path class="cls-51" d="m70.62,6.06c-.03.19.09.39.25.42.17.03.32-.11.35-.3.03-.19-.07-.35-.23-.39-.17-.03-.34.08-.37.27Z"/>
            <path class="cls-54" d="m61.59,60.62c-.05.3.09.59.3.63.21.04.4-.18.45-.48.05-.29-.07-.54-.27-.58-.21-.04-.42.13-.47.43Z"/>
            <path class="cls-52" d="m66.59,30.42c-.04.24.09.47.27.51.19.04.35-.14.39-.38.04-.24-.07-.43-.25-.47-.18-.04-.37.1-.41.34Z"/>
            <path class="cls-10" d="m64.23,44.66c-.04.26.09.52.29.56.2.04.38-.16.42-.42.04-.26-.07-.48-.26-.52-.19-.04-.4.12-.44.38Z"/>
            <path class="cls-11" d="m68.7,17.62c-.04.21.09.43.26.46.18.04.33-.12.37-.33.03-.21-.07-.39-.24-.42-.18-.03-.35.09-.39.3Z"/>
            <path class="cls-12" d="m77.3,7.39c-.03.19.07.38.24.42.17.03.33-.1.36-.3.02-.17-.1-.36-.27-.39-.17-.03-.31.11-.33.27Z"/>
            <path class="cls-13" d="m75.73,19.02c-.03.21.07.42.25.46.18.03.35-.12.38-.33.03-.21-.1-.4-.28-.43-.18-.04-.32.09-.35.31Z"/>
            <path class="cls-15" d="m69.88,62.27c-.04.3.07.58.28.63.21.04.42-.18.46-.48.04-.3-.11-.55-.32-.59-.21-.04-.39.14-.43.44Z"/>
            <path class="cls-16" d="m73.99,31.89c-.03.24.07.47.26.5.18.04.37-.13.4-.37.03-.2-.11-.44-.29-.48-.19-.04-.35.14-.37.34Z"/>
            <path class="cls-17" d="m72.05,46.22c-.04.26.07.52.27.56.2.04.4-.16.43-.42.03-.26-.11-.49-.3-.53-.2-.04-.36.12-.4.39Z"/>
            <path class="cls-19" d="m81.37,33.36c-.02.24.11.48.3.51.16.03.34-.14.37-.38.02-.24-.12-.44-.28-.47-.18-.04-.36.1-.39.34Z"/>
            <path class="cls-18" d="m78.14,63.92c-.03.3.12.59.33.63.18.04.39-.19.42-.49.03-.3-.12-.55-.31-.58-.21-.04-.41.14-.44.44Z"/>
            <path class="cls-14" d="m82.73,20.41c-.02.21.11.43.29.47.15.03.32-.12.35-.34.02-.21-.11-.4-.27-.43-.18-.03-.34.09-.37.3Z"/>
            <path class="cls-34" d="m79.85,47.78c-.03.27.12.53.31.57.17.03.36-.16.39-.43.03-.27-.12-.49-.29-.52-.19-.04-.39.12-.41.38Z"/>
            <path class="cls-30" d="m83.97,8.72c-.02.19.11.39.27.42.15.03.31-.11.33-.3.02-.19-.11-.36-.25-.39-.17-.03-.33.08-.35.27Z"/>
            <path class="cls-31" d="m89.76,21.81c-.02.22.1.43.27.46.18.04.34-.12.36-.34.02-.22-.12-.4-.3-.44-.18-.04-.32.09-.33.31Z"/>
            <path class="cls-29" d="m88.77,34.84c-.02.24.1.47.29.51.19.04.36-.14.38-.38.02-.21-.13-.44-.32-.48-.19-.04-.33.14-.35.35Z"/>
            <path class="cls-36" d="m87.67,49.34c-.02.27.1.53.3.57.2.04.38-.16.4-.43.02-.27-.13-.49-.33-.53-.2-.04-.35.13-.37.39Z"/>
            <path class="cls-32" d="m91.47-.63c-.01.18.09.35.25.39.16.03.31-.09.32-.27.01-.18-.11-.33-.28-.36-.16-.03-.28.07-.3.25Z"/>
            <path class="cls-33" d="m90.66,10.05c-.01.2.09.39.26.42.17.03.33-.11.34-.3.01-.2-.12-.36-.29-.4-.17-.03-.3.08-.31.28Z"/>
            <path class="cls-38" d="m86.44,65.57c-.02.3.11.59.32.63.21.04.41-.18.43-.48.02-.3-.14-.55-.35-.59-.21-.04-.37.14-.4.44Z"/>
            <path class="cls-39" d="m97.32,11.38c0,.2.13.4.3.43.17.03.29-.11.3-.31,0-.17-.1-.36-.27-.39-.17-.03-.32.11-.33.28Z"/>
            <path class="cls-35" d="m95.46,50.89c-.01.27.15.54.35.57.2.04.35-.17.36-.43.01-.27-.12-.49-.31-.53-.2-.04-.38.12-.39.39Z"/>
            <path class="cls-21" d="m97.82.64c0,.18.12.36.29.39.16.03.28-.1.29-.28,0-.18-.1-.33-.26-.36-.16-.03-.31.07-.31.25Z"/>
            <path class="cls-24" d="m94.7,67.22c-.01.3.15.6.36.64.21.04.37-.19.38-.49.01-.3-.13-.55-.33-.59-.21-.04-.4.14-.41.44Z"/>
            <path class="cls-25" d="m96.15,36.31c-.01.24.14.48.33.52.18.04.33-.14.34-.39.01-.24-.11-.44-.3-.48-.19-.04-.36.1-.37.34Z"/>
            <path class="cls-22" d="m96.76,23.21c-.01.22.13.44.31.47.18.03.31-.13.32-.34,0-.22-.11-.4-.28-.43-.18-.04-.34.09-.35.31Z"/>
            <path class="cls-23" d="m103.29,52.45c0,.27.13.53.33.57.2.04.37-.16.37-.43,0-.27-.16-.5-.36-.54-.2-.04-.34.13-.35.4Z"/>
            <path class="cls-28" d="m104.01,12.71c0,.2.11.39.28.43.17.03.32-.11.32-.31,0-.17-.14-.37-.31-.4-.17-.03-.29.11-.29.28Z"/>
            <path class="cls-20" d="m103.79,24.61c0,.22.12.43.3.47.18.04.33-.12.33-.34,0-.22-.14-.41-.32-.44-.18-.04-.31.1-.31.31Z"/>
            <path class="cls-26" d="m104.2,1.91c0,.18.11.36.27.39.16.03.3-.1.3-.28,0-.15-.13-.34-.29-.37-.16-.03-.28.1-.28.25Z"/>
            <path class="cls-27" d="m102.99,68.87c0,.3.14.6.35.64.21.04.39-.18.4-.49,0-.3-.17-.56-.38-.6-.21-.04-.36.15-.37.45Z"/>
            <path class="cls-37" d="m103.55,37.78c0,.24.12.48.31.51.19.04.35-.14.35-.38,0-.24-.15-.45-.34-.49-.19-.04-.32.11-.33.35Z"/>
            <path class="cls-47" d="m110.67,14.04c0,.2.15.4.32.43.14.03.29-.11.28-.31,0-.17-.15-.37-.29-.4-.17-.03-.31.11-.31.28Z"/>
            <path class="cls-48" d="m110.93,39.25c0,.24.16.49.35.52.16.03.32-.15.31-.39,0-.24-.17-.45-.32-.48-.19-.04-.34.11-.34.35Z"/>
            <path class="cls-40" d="m110.79,26.01c0,.22.15.44.33.47.15.03.3-.13.3-.35,0-.22-.16-.41-.31-.44-.18-.04-.33.09-.32.31Z"/>
            <path class="cls-41" d="m111.08,54c0,.27.17.54.37.58.17.03.34-.17.33-.44,0-.27-.18-.5-.34-.53-.2-.04-.36.12-.36.39Z"/>
            <path class="cls-42" d="m111.25,70.52c0,.31.18.61.39.65.18.04.36-.19.35-.5,0-.31-.19-.56-.36-.6-.21-.04-.38.14-.38.45Z"/>
            <path class="cls-43" d="m117.82,27.41c0,.22.14.44.32.47.18.04.32-.12.31-.35,0-.22-.17-.41-.34-.44-.17-.03-.3.1-.29.32Z"/>
            <path class="cls-49" d="m118.33,40.73c0,.25.15.48.34.52.19.04.34-.14.33-.39,0-.21-.18-.45-.36-.49-.18-.04-.31.15-.3.36Z"/>
            <path class="cls-44" d="m118.9,55.56c.01.27.16.54.36.58.2.04.36-.16.35-.44-.01-.27-.19-.5-.38-.54-.19-.04-.33.13-.32.4Z"/>
            <path class="cls-45" d="m119.54,72.17c.01.31.17.6.38.64.21.04.38-.19.36-.5-.01-.31-.2-.56-.41-.6-.21-.04-.35.15-.34.46Z"/>
            <path class="cls-46" d="m117.36,15.37c0,.2.14.4.3.43.17.03.31-.11.3-.31,0-.17-.16-.37-.33-.41-.17-.03-.28.11-.28.29Z"/>
            <path class="cls-68" d="m124.82,28.8c.01.22.18.44.33.47.18.03.32-.13.3-.35-.01-.19-.18-.41-.35-.45-.15-.03-.29.13-.28.32Z"/>
            <path class="cls-69" d="m125.71,42.2c.02.25.19.49.35.52.18.04.33-.14.31-.39-.01-.21-.19-.46-.37-.49-.16-.03-.31.15-.29.36Z"/>
            <path class="cls-70" d="m126.7,57.11c.02.28.2.55.37.58.2.04.35-.16.33-.44-.02-.27-.2-.51-.4-.55-.17-.03-.32.13-.31.41Z"/>
            <path class="cls-71" d="m124.02,16.7c.01.2.17.4.31.43.17.03.3-.11.29-.31-.01-.17-.17-.37-.34-.41-.15-.03-.28.11-.27.29Z"/>
            <path class="cls-66" d="m133.11,43.68c.02.25.18.49.36.53.19.04.33-.14.3-.39-.02-.25-.2-.46-.39-.5-.18-.04-.3.11-.28.36Z"/>
            <path class="cls-67" d="m131.85,30.2c.02.22.16.44.34.48.18.04.31-.13.29-.35-.02-.22-.19-.41-.37-.45-.18-.03-.29.1-.26.32Z"/>
            <path class="cls-83" d="m130.71,18.04c.02.2.16.4.32.43.17.03.3-.11.28-.31-.02-.17-.18-.38-.35-.41-.17-.03-.27.12-.25.29Z"/>
            <path class="cls-84" d="m137.37,19.36c.02.2.19.41.34.44.17.03.29-.11.27-.32-.02-.2-.19-.38-.36-.41-.14-.03-.27.09-.25.29Z"/>
            <path class="cls-82" d="m138.85,31.6c.03.22.2.45.35.48.18.04.31-.13.28-.35-.02-.19-.2-.42-.38-.45-.15-.03-.28.13-.26.33Z"/>
            <path class="cls-81" d="m140.49,45.15c.03.25.22.5.38.53.19.04.32-.15.29-.4-.03-.25-.21-.46-.4-.5-.16-.03-.3.12-.27.36Z"/>
            <path class="cls-77" d="m145.85,33c.03.23.21.45.39.49.18.03.3-.13.27-.36-.03-.23-.21-.42-.39-.45-.18-.04-.3.1-.27.32Z"/>
            <path class="cls-73" d="m147.87,46.62c.04.25.23.5.42.54.18.04.31-.15.28-.4-.04-.25-.23-.46-.41-.5-.19-.04-.32.11-.28.36Z"/>
            <path class="cls-80" d="m144.03,20.69c.03.2.2.41.37.44.17.03.29-.11.26-.32-.03-.2-.2-.38-.36-.41-.17-.03-.29.08-.26.29Z"/>
            <path class="cls-79" d="m152.88,34.4c.04.23.2.45.38.48.18.04.29-.13.25-.36-.04-.23-.22-.42-.4-.46-.18-.04-.27.1-.23.33Z"/>
            <path class="cls-74" d="m155.27,48.09c.04.25.21.5.4.53.19.04.31-.15.26-.4-.04-.22-.23-.46-.42-.5-.19-.04-.28.15-.24.37Z"/>
            <path class="cls-78" d="m150.72,22.03c.04.21.19.41.36.44.17.03.28-.11.25-.32-.04-.21-.21-.38-.37-.42-.17-.03-.26.09-.23.3Z"/>
          </g>
        </g>
        <polygon class="cls-72" points="1.45 1.58 160.42 33.24 60.76 63.94 1.45 1.58"/>
      </g>
    </g>
  </g>
</svg>