<svg xmlns="http://www.w3.org/2000/svg" viewBox="0 0 359.25 59.46"><defs><style>.cls-1{fill:#fff;}.cls-2{fill:#20abca;}</style></defs><g id="Layer_2" data-name="Layer 2"><g id="Layer_1-2" data-name="Layer 1"><g id="Groupe_5" data-name="Groupe 5"><path id="Tracé_7" data-name="Tracé 7" class="cls-1" d="M285.68.59V26.13h0c0,3.6.07,7.11-.17,10.71-.61,8.93-6.16,14.16-14,14.16h-2.69c-7.81,0-13.36-5.22-14-14.16-.25-3.6-.18-7.11-.17-10.71h0V.59h-8.34V36.4a23,23,0,0,0,6.76,16.31,24.65,24.65,0,0,0,16.3,6.75H271a24.61,24.61,0,0,0,16.31-6.75,23,23,0,0,0,6.76-16.31V.59Z"/><path id="Tracé_8" data-name="Tracé 8" class="cls-1" d="M355.35,14.74v0a28.47,28.47,0,0,0-11-10.38A33.19,33.19,0,0,0,328.54.62H305.12V8.43h23.11a26.05,26.05,0,0,1,12.14,2.74,20,20,0,0,1,7.9,7.39,22.27,22.27,0,0,1,2.8,11.09,22,22,0,0,1-2.78,11.06,19.73,19.73,0,0,1-7.91,7.49,25.82,25.82,0,0,1-12.15,2.68H313.3V27.52h-8.18V58.68h23.41A33.16,33.16,0,0,0,344.37,55a28.11,28.11,0,0,0,11-10.33,30.53,30.53,0,0,0,0-29.89Z"/><rect id="Rectangle_3" data-name="Rectangle 3" class="cls-1" y="0.61" width="8.19" height="58"/><path id="Tracé_9" data-name="Tracé 9" class="cls-1" d="M19.28.61h6.41L59.15,43.28V.61h8.16V58.67H61L27.48,16V58.67h-8.2Z"/><path id="Tracé_10" data-name="Tracé 10" class="cls-1" d="M109,0a29.68,29.68,0,1,0,30.57,29.67A30.14,30.14,0,0,0,109,0Zm0,51.44A21.78,21.78,0,1,1,131.1,29.67a21.78,21.78,0,0,1-22.18,21.77Z"/><path id="Tracé_11" data-name="Tracé 11" class="cls-2" d="M138.78.62h9L168,46.19,188.53.62h8.63L171.32,58.74h-6.55Z"/><path id="Tracé_12" data-name="Tracé 12" class="cls-2" d="M191.74,58.68h-8.88L209.54.59h6.61l26.72,58.09H234L212.85,12.23Z"/></g></g></g></svg>