<?xml version="1.0" encoding="UTF-8"?>
<svg id="Layer_2" data-name="Layer 2" xmlns="http://www.w3.org/2000/svg" viewBox="0 0 359.28 59.46">
  <defs>
    <style>
      .cls-1 {
        fill: #fff;
      }

      .cls-2 {
        fill: #3c8a2e;
      }
    </style>
  </defs>
  <g id="BACKGROUND">
    <g>
      <path id="Tracé_7" data-name="Tracé 7" class="cls-1" d="m285.68.59v25.54h0c0,3.6.07,7.11-.17,10.71-.61,8.93-6.16,14.16-14,14.16h-2.69c-7.81,0-13.36-5.22-14-14.16-.25-3.6-.18-7.11-.17-10.71h0V.59h-8.34v35.81c0,6.12,2.43,11.99,6.76,16.31,4.41,4.18,10.22,6.59,16.3,6.75h1.63c6.08-.16,11.9-2.56,16.31-6.75,4.33-4.32,6.77-10.19,6.76-16.31V.59h-8.39Z"/>
      <path id="Tracé_8" data-name="Tracé 8" class="cls-1" d="m355.35,14.74h0c-2.66-4.39-6.46-7.98-11-10.38-4.88-2.54-10.31-3.82-15.81-3.74h-23.42v7.81h23.11c4.21-.08,8.37.86,12.14,2.74,3.26,1.69,6,4.25,7.9,7.39,1.88,3.39,2.85,7.21,2.8,11.09.06,3.87-.9,7.68-2.78,11.06-1.88,3.19-4.62,5.79-7.91,7.49-3.77,1.87-7.94,2.79-12.15,2.68h-14.93v-23.36h-8.18v31.16h23.41c5.5.11,10.95-1.16,15.84-3.68,4.54-2.38,8.34-5.95,11-10.33,5.21-9.28,5.21-20.61,0-29.89l-.02-.04Z"/>
      <rect id="Rectangle_3" data-name="Rectangle 3" class="cls-1" y=".61" width="8.19" height="58"/>
      <path id="Tracé_9" data-name="Tracé 9" class="cls-1" d="m19.28.61h6.41l33.46,42.67V.61h8.16v58.06h-6.31L27.48,16v42.67h-8.2V.61Z"/>
      <path id="Tracé_10" data-name="Tracé 10" class="cls-1" d="m109,0c-16.38.49-29.27,14.17-28.78,30.56.49,16.38,14.17,29.27,30.56,28.78,16.04-.48,28.79-13.62,28.79-29.66C139.31,13.04,125.63-.24,109,0Zm0,51.44c-12.03-.18-21.63-10.07-21.46-22.1.18-12.03,10.07-21.63,22.1-21.46,11.91.17,21.46,9.88,21.46,21.79,0,12.03-9.76,21.78-21.79,21.77-.13,0-.26,0-.39,0h.08Z"/>
      <path id="Tracé_11" data-name="Tracé 11" class="cls-2" d="m138.78.62h9l20.22,45.57L188.53.62h8.63l-25.84,58.12h-6.55L138.78.62Z"/>
      <path id="Tracé_12" data-name="Tracé 12" class="cls-2" d="m191.74,58.68h-8.88L209.54.59h6.61l26.72,58.09h-8.87l-21.15-46.45-21.11,46.45Z"/>
    </g>
  </g>
</svg>