<?xml version="1.0" standalone="no"?>
<!DOCTYPE svg PUBLIC "-//W3C//DTD SVG 20010904//EN"
 "http://www.w3.org/TR/2001/REC-SVG-20010904/DTD/svg10.dtd">
<svg version="1.0" xmlns="http://www.w3.org/2000/svg"
 width="171.000000pt" height="171.000000pt" viewBox="0 0 171.000000 171.000000"
 preserveAspectRatio="xMidYMid meet">
<metadata>
Created by potrace 1.14, written by Peter Selinger 2001-2017
</metadata>
<g transform="translate(0.000000,171.000000) scale(0.100000,-0.100000)"
fill="#000000" stroke="none">
<path d="M104 1103 c56 -126 151 -339 212 -475 l109 -248 56 0 56 0 123 278
c68 152 163 366 211 475 l87 197 -72 0 -73 0 -164 -365 c-90 -201 -166 -365
-169 -365 -3 0 -50 103 -105 228 -54 125 -115 263 -135 307 -20 44 -47 106
-61 137 l-24 58 -77 0 -77 0 103 -227z"/>
<path d="M1031 1058 c-69 -150 -149 -324 -178 -386 -29 -62 -53 -115 -53 -117
0 -3 -68 -152 -76 -167 -2 -3 30 -6 71 -7 l76 -1 18 43 c10 23 28 62 39 87 26
57 67 147 152 335 37 83 82 182 100 220 l32 70 14 -30 c8 -16 35 -77 62 -135
26 -58 97 -214 157 -346 l109 -241 73 -2 c40 -1 73 1 73 3 0 5 -22 54 -76 171
-7 17 -90 197 -183 400 l-170 370 -58 3 -58 2 -124 -272z"/>
</g>
</svg>
