<?xml version="1.0" standalone="no"?>
<!DOCTYPE svg PUBLIC "-//W3C//DTD SVG 20010904//EN"
 "http://www.w3.org/TR/2001/REC-SVG-20010904/DTD/svg10.dtd">
<svg version="1.0" xmlns="http://www.w3.org/2000/svg"
 width="205.000000pt" height="205.000000pt" viewBox="0 0 205.000000 205.000000"
 preserveAspectRatio="xMidYMid meet">
<metadata>
Created by potrace 1.14, written by Peter Selinger 2001-2017
</metadata>
<g transform="translate(0.000000,205.000000) scale(0.100000,-0.100000)"
fill="#000000" stroke="none">
<path d="M14 1589 c-4 -8 8 -36 288 -659 l213 -475 66 -2 66 -2 25 57 c14 31
127 285 252 565 124 279 226 511 226 515 0 10 -160 7 -169 -4 -4 -5 -32 -65
-63 -134 -115 -257 -160 -356 -178 -395 -10 -22 -50 -110 -89 -195 l-70 -154
-29 64 c-16 36 -104 235 -197 443 -92 207 -172 377 -179 378 -68 4 -159 3
-162 -2z"/>
<path d="M1408 1592 c-8 -2 -32 -40 -53 -85 -21 -45 -56 -120 -78 -167 -21
-47 -55 -119 -74 -160 -20 -41 -44 -95 -55 -120 -11 -25 -37 -83 -59 -130
-166 -355 -215 -466 -208 -470 7 -5 134 -6 162 -1 8 1 22 30 197 416 37 83 86
188 107 235 22 47 55 120 74 162 19 43 36 78 39 78 3 -1 21 -35 40 -78 19 -42
55 -122 80 -177 26 -55 102 -222 169 -371 l123 -270 84 1 c46 0 85 3 87 5 2 3
-50 122 -117 266 -67 143 -132 285 -145 315 -24 52 -74 160 -148 319 -19 41
-51 110 -70 153 -20 42 -41 77 -47 78 -54 3 -95 4 -108 1z"/>
</g>
</svg>
