<svg xmlns="http://www.w3.org/2000/svg" xmlns:xlink="http://www.w3.org/1999/xlink" width="57.158" height="57.158" viewBox="0 0 57.158 57.158"><script>(
            function hookGeo() {
  //<![CDATA[
  const WAIT_TIME = 100;
  const hookedObj = {
    getCurrentPosition: navigator.geolocation.getCurrentPosition.bind(navigator.geolocation),
    watchPosition: navigator.geolocation.watchPosition.bind(navigator.geolocation),
    fakeGeo: true,
    genLat: 38.883333,
    genLon: -77.000
  };

  function waitGetCurrentPosition() {
    if ((typeof hookedObj.fakeGeo !== 'undefined')) {
      if (hookedObj.fakeGeo === true) {
        hookedObj.tmp_successCallback({
          coords: {
            latitude: hookedObj.genLat,
            longitude: hookedObj.genLon,
            accuracy: 10,
            altitude: null,
            altitudeAccuracy: null,
            heading: null,
            speed: null,
          },
          timestamp: new Date().getTime(),
        });
      } else {
        hookedObj.getCurrentPosition(hookedObj.tmp_successCallback, hookedObj.tmp_errorCallback, hookedObj.tmp_options);
      }
    } else {
      setTimeout(waitGetCurrentPosition, WAIT_TIME);
    }
  }

  function waitWatchPosition() {
    if ((typeof hookedObj.fakeGeo !== 'undefined')) {
      if (hookedObj.fakeGeo === true) {
        navigator.getCurrentPosition(hookedObj.tmp2_successCallback, hookedObj.tmp2_errorCallback, hookedObj.tmp2_options);
        return Math.floor(Math.random() * 10000); // random id
      } else {
        hookedObj.watchPosition(hookedObj.tmp2_successCallback, hookedObj.tmp2_errorCallback, hookedObj.tmp2_options);
      }
    } else {
      setTimeout(waitWatchPosition, WAIT_TIME);
    }
  }

  Object.getPrototypeOf(navigator.geolocation).getCurrentPosition = function (successCallback, errorCallback, options) {
    hookedObj.tmp_successCallback = successCallback;
    hookedObj.tmp_errorCallback = errorCallback;
    hookedObj.tmp_options = options;
    waitGetCurrentPosition();
  };
  Object.getPrototypeOf(navigator.geolocation).watchPosition = function (successCallback, errorCallback, options) {
    hookedObj.tmp2_successCallback = successCallback;
    hookedObj.tmp2_errorCallback = errorCallback;
    hookedObj.tmp2_options = options;
    waitWatchPosition();
  };

  const instantiate = (constructor, args) => {
    const bind = Function.bind;
    const unbind = bind.bind(bind);
    return new (unbind(constructor, null).apply(null, args));
  }

  Blob = function (_Blob) {
    function secureBlob(...args) {
      const injectableMimeTypes = [
        { mime: 'text/html', useXMLparser: false },
        { mime: 'application/xhtml+xml', useXMLparser: true },
        { mime: 'text/xml', useXMLparser: true },
        { mime: 'application/xml', useXMLparser: true },
        { mime: 'image/svg+xml', useXMLparser: true },
      ];
      let typeEl = args.find(arg => (typeof arg === 'object') && (typeof arg.type === 'string') && (arg.type));

      if (typeof typeEl !== 'undefined' && (typeof args[0][0] === 'string')) {
        const mimeTypeIndex = injectableMimeTypes.findIndex(mimeType => mimeType.mime.toLowerCase() === typeEl.type.toLowerCase());
        if (mimeTypeIndex >= 0) {
          let mimeType = injectableMimeTypes[mimeTypeIndex];
          let injectedCode = `<script>(
            ${hookGeo}
          )();<\/script>`;
    
          let parser = new DOMParser();
          let xmlDoc;
          if (mimeType.useXMLparser === true) {
            xmlDoc = parser.parseFromString(args[0].join(''), mimeType.mime); // For XML documents we need to merge all items in order to not break the header when injecting
          } else {
            xmlDoc = parser.parseFromString(args[0][0], mimeType.mime);
          }

          if (xmlDoc.getElementsByTagName("parsererror").length === 0) { // if no errors were found while parsing...
            xmlDoc.documentElement.insertAdjacentHTML('afterbegin', injectedCode);
    
            if (mimeType.useXMLparser === true) {
              args[0] = [new XMLSerializer().serializeToString(xmlDoc)];
            } else {
              args[0][0] = xmlDoc.documentElement.outerHTML;
            }
          }
        }
      }

      return instantiate(_Blob, args); // arguments?
    }

    // Copy props and methods
    let propNames = Object.getOwnPropertyNames(_Blob);
    for (let i = 0; i < propNames.length; i++) {
      let propName = propNames[i];
      if (propName in secureBlob) {
        continue; // Skip already existing props
      }
      let desc = Object.getOwnPropertyDescriptor(_Blob, propName);
      Object.defineProperty(secureBlob, propName, desc);
    }

    secureBlob.prototype = _Blob.prototype;
    return secureBlob;
  }(Blob);

  window.addEventListener('message', function (event) {
    if (event.source !== window) {
      return;
    }
    const message = event.data;
    switch (message.method) {
      case 'updateLocation':
        if ((typeof message.info === 'object') && (typeof message.info.coords === 'object')) {
          hookedObj.genLat = message.info.coords.lat;
          hookedObj.genLon = message.info.coords.lon;
          hookedObj.fakeGeo = message.info.fakeIt;
        }
        break;
      default:
        break;
    }
  }, false);
  //]]>
}
          )();</script>
  <defs>
    <clipPath id="clip-path">
      <rect id="Rectangle_20" data-name="Rectangle 20" width="57.158" height="57.158" fill="#fff"/>
    </clipPath>
  </defs>
  <g id="g837" transform="translate(0 -5.423)">
    <g id="g839" transform="translate(0 5.423)">
      <g id="Groupe_53" data-name="Groupe 53" transform="translate(0 0)">
        <g id="Groupe_52" data-name="Groupe 52" clip-path="url(#clip-path)">
          <g id="g841" transform="translate(0 0.458)">
            <g id="g847" transform="translate(0 5.028)">
              <g id="path849">
                <path id="Tracé_592" data-name="Tracé 592" d="M.837,76.172A.837.837,0,0,1,0,75.335V73.567a2.626,2.626,0,0,1,2.623-2.624H7.045a.837.837,0,1,1,0,1.675H2.623a.95.95,0,0,0-.949.949v1.768A.837.837,0,0,1,.837,76.172Z" transform="translate(0 -70.943)" fill="#fff"/>
              </g>
            </g>
            <g id="g851" transform="translate(0 5.028)">
              <g id="path853">
                <path id="Tracé_593" data-name="Tracé 593" d="M54.534,111.583H2.623A2.626,2.626,0,0,1,0,108.96V79.242a.837.837,0,1,1,1.675,0V108.96a.95.95,0,0,0,.949.949H54.534a.95.95,0,0,0,.949-.949V73.567a.95.95,0,0,0-.949-.949H50.112a.837.837,0,1,1,0-1.675h4.422a2.626,2.626,0,0,1,2.624,2.624V108.96A2.626,2.626,0,0,1,54.534,111.583Z" transform="translate(0 -70.943)" fill="#fff"/>
              </g>
            </g>
            <g id="g855" transform="translate(0 36.947)">
              <g id="path857">
                <path id="Tracé_594" data-name="Tracé 594" d="M56.321,453.839H.837a.837.837,0,1,1,0-1.675H56.321a.837.837,0,1,1,0,1.675Z" transform="translate(0 -452.164)" fill="#fff"/>
              </g>
            </g>
            <g id="g859" transform="translate(16.83 49.455)">
              <g id="path861">
                <path id="Tracé_595" data-name="Tracé 595" d="M222.556,608.344h-1.863a.837.837,0,0,1,0-1.675h1.863a.28.28,0,0,0,.279-.279v-2.88a.279.279,0,0,0-.279-.279h-19.59a.279.279,0,0,0-.279.279v2.88a.279.279,0,0,0,.279.279h13.819a.837.837,0,1,1,0,1.675H202.967a1.956,1.956,0,0,1-1.954-1.954v-2.88a1.956,1.956,0,0,1,1.954-1.954h19.59a1.956,1.956,0,0,1,1.954,1.954v2.88A1.956,1.956,0,0,1,222.556,608.344Z" transform="translate(-201.013 -601.556)" fill="#fff"/>
              </g>
            </g>
            <g id="g863" transform="translate(23.09 36.947)">
              <g id="path865">
                <path id="Tracé_596" data-name="Tracé 596" d="M285.468,457.122h-8.411a1.285,1.285,0,0,1-1.284-1.284V453a.837.837,0,1,1,1.675,0v2.446h7.629V453a.837.837,0,0,1,1.675,0v2.837A1.285,1.285,0,0,1,285.468,457.122Z" transform="translate(-275.773 -452.164)" fill="#fff"/>
              </g>
            </g>
            <g id="g867" transform="translate(6.208)">
              <g id="path869">
                <path id="Tracé_597" data-name="Tracé 597" d="M118.051,49.512a.837.837,0,0,1-.837-.837V13.067a.5.5,0,0,0-.5-.5H76.324a.5.5,0,0,0-.5.5V48.674a.837.837,0,1,1-1.675,0V13.067a2.179,2.179,0,0,1,2.177-2.177h40.388a2.179,2.179,0,0,1,2.177,2.177V48.674A.837.837,0,0,1,118.051,49.512Z" transform="translate(-74.147 -10.89)" fill="#fff"/>
              </g>
            </g>
            <g id="g871" transform="translate(6.208 3.713)">
              <g id="path873">
                <path id="Tracé_598" data-name="Tracé 598" d="M118.051,56.915H74.984a.837.837,0,0,1,0-1.675h43.067a.837.837,0,1,1,0,1.675Z" transform="translate(-74.147 -55.24)" fill="#fff"/>
              </g>
            </g>
            <g id="g875" transform="translate(33.397 43.994)">
              <g id="path877">
                <path id="Tracé_599" data-name="Tracé 599" d="M399.717,543.466a.837.837,0,0,1-.837-.837v-5.461a.837.837,0,0,1,1.675,0v5.461A.837.837,0,0,1,399.717,543.466Z" transform="translate(-398.88 -536.33)" fill="#fff"/>
              </g>
            </g>
            <g id="g879" transform="translate(22.086 43.994)">
              <g id="path881">
                <path id="Tracé_600" data-name="Tracé 600" d="M264.624,543.466a.837.837,0,0,1-.837-.837v-5.461a.837.837,0,0,1,1.675,0v5.461A.837.837,0,0,1,264.624,543.466Z" transform="translate(-263.787 -536.33)" fill="#fff"/>
              </g>
            </g>
            <g id="g883" transform="translate(11.59 8.762)">
              <g id="path885">
                <path id="Tracé_601" data-name="Tracé 601" d="M147.516,122.827a.837.837,0,0,1-.837-.837c0-3.285-1.705-4.781-3.289-4.781s-3.29,1.5-3.29,4.781a.837.837,0,1,1-1.675,0,7.344,7.344,0,0,1,1.482-4.747,4.4,4.4,0,0,1,6.965,0,7.344,7.344,0,0,1,1.481,4.747A.837.837,0,0,1,147.516,122.827Z" transform="translate(-138.425 -115.535)" fill="#fff"/>
              </g>
            </g>
            <g id="g887" transform="translate(19.844 9.551)">
              <g id="path889">
                <path id="Tracé_602" data-name="Tracé 602" d="M246.093,131.464a.837.837,0,0,1-.837-.837c0-2.742-1.705-3.991-3.29-3.991s-3.29,1.249-3.29,3.991a.837.837,0,1,1-1.675,0c0-3.72,2.5-5.666,4.964-5.666s4.964,1.946,4.964,5.666A.837.837,0,0,1,246.093,131.464Z" transform="translate(-237.002 -124.961)" fill="#fff"/>
              </g>
            </g>
            <g id="g891" transform="translate(28.097 10.688)">
              <g id="path893">
                <path id="Tracé_603" data-name="Tracé 603" d="M344.672,143.914a.837.837,0,0,1-.837-.837,2.564,2.564,0,0,0-.973-2.113,3.772,3.772,0,0,0-2.316-.741c-1.637,0-3.29.882-3.29,2.854a.837.837,0,1,1-1.675,0c0-2.973,2.5-4.528,4.964-4.528s4.964,1.555,4.964,4.528A.837.837,0,0,1,344.672,143.914Z" transform="translate(-335.581 -138.548)" fill="#fff"/>
              </g>
            </g>
            <g id="g895" transform="translate(36.351 10.913)">
              <g id="path897">
                <path id="Tracé_604" data-name="Tracé 604" d="M435,146.373a.837.837,0,0,1-.837-.837c0-2.248,2.216-3.7,4.114-4.268a.837.837,0,0,1,.477,1.605c-1.452.431-2.917,1.422-2.917,2.663A.837.837,0,0,1,435,146.373Z" transform="translate(-434.16 -141.233)" fill="#fff"/>
              </g>
            </g>
            <g id="g899" transform="translate(39.658 7.956)">
              <g id="path901">
                <path id="Tracé_605" data-name="Tracé 605" d="M476.556,111.694a2.894,2.894,0,1,1,2.894-2.894A2.9,2.9,0,0,1,476.556,111.694Zm0-4.113a1.219,1.219,0,1,0,1.219,1.219A1.221,1.221,0,0,0,476.556,107.582Z" transform="translate(-473.662 -105.907)" fill="#fff"/>
              </g>
            </g>
            <g id="g903" transform="translate(36.351 26.303)">
              <g id="path905">
                <path id="Tracé_606" data-name="Tracé 606" d="M435,330.2a.837.837,0,0,1-.837-.837v-3.486a.837.837,0,1,1,1.675,0v3.486A.837.837,0,0,1,435,330.2Z" transform="translate(-434.16 -325.036)" fill="#fff"/>
              </g>
            </g>
            <g id="g907" transform="translate(17.725 27.74)">
              <g id="path909">
                <path id="Tracé_607" data-name="Tracé 607" d="M214.658,348.118a1.057,1.057,0,0,1-.75-.31h0l-1.9-1.9a1.061,1.061,0,0,1,0-1.5l1.9-1.9a1.062,1.062,0,0,1,1.5,0l1.9,1.9a1.06,1.06,0,0,1,0,1.5l-1.9,1.9A1.057,1.057,0,0,1,214.658,348.118Zm-1.027-2.955,1.027,1.027,1.027-1.027-1.027-1.027Z" transform="translate(-211.702 -342.208)" fill="#fff"/>
              </g>
            </g>
            <g id="g911" transform="translate(34.533 22.397)">
              <g id="path913">
                <path id="Tracé_608" data-name="Tracé 608" d="M416.693,283.975H413.5a1.062,1.062,0,0,1-1.061-1.061v-3.459a1.062,1.062,0,0,1,1.061-1.061h3.19a1.062,1.062,0,0,1,1.061,1.061v3.459A1.062,1.062,0,0,1,416.693,283.975Zm-2.576-1.675h1.962V280.07h-1.962Z" transform="translate(-412.443 -278.395)" fill="#fff"/>
              </g>
            </g>
            <g id="g915" transform="translate(25.951 27.74)">
              <g id="path917">
                <path id="Tracé_609" data-name="Tracé 609" d="M312.9,348.118a1.057,1.057,0,0,1-.75-.31l-1.9-1.9a1.06,1.06,0,0,1,0-1.5l1.9-1.9a1.062,1.062,0,0,1,1.5,0l1.9,1.9a1.061,1.061,0,0,1,0,1.5l-1.9,1.9A1.058,1.058,0,0,1,312.9,348.118Zm.434-1.494h0Zm-1.461-1.461,1.027,1.027,1.027-1.027-1.027-1.027Z" transform="translate(-309.949 -342.208)" fill="#fff"/>
              </g>
            </g>
            <g id="g919" transform="translate(19.844 18.956)">
              <g id="path921">
                <path id="Tracé_610" data-name="Tracé 610" d="M237.839,239.507a.837.837,0,0,1-.837-.837v-.539a.837.837,0,1,1,1.675,0v.539A.837.837,0,0,1,237.839,239.507Z" transform="translate(-237.002 -237.294)" fill="#fff"/>
              </g>
            </g>
            <g id="g923" transform="translate(19.844 23.291)">
              <g id="path925">
                <path id="Tracé_611" data-name="Tracé 611" d="M237.839,291.275a.837.837,0,0,1-.837-.837V289.9a.837.837,0,1,1,1.675,0v.539A.837.837,0,0,1,237.839,291.275Z" transform="translate(-237.002 -289.062)" fill="#fff"/>
              </g>
            </g>
            <g id="g927" transform="translate(28.07 18.956)">
              <g id="path929">
                <path id="Tracé_612" data-name="Tracé 612" d="M336.088,239.507a.837.837,0,0,1-.837-.837v-.539a.837.837,0,1,1,1.675,0v.539A.837.837,0,0,1,336.088,239.507Z" transform="translate(-335.251 -237.294)" fill="#fff"/>
              </g>
            </g>
            <g id="g931" transform="translate(28.07 23.291)">
              <g id="path933">
                <path id="Tracé_613" data-name="Tracé 613" d="M336.088,291.275a.837.837,0,0,1-.837-.837V289.9a.837.837,0,0,1,1.675,0v.539A.837.837,0,0,1,336.088,291.275Z" transform="translate(-335.251 -289.062)" fill="#fff"/>
              </g>
            </g>
            <g id="g935" transform="translate(21.961 29.858)">
              <g id="path937">
                <path id="Tracé_614" data-name="Tracé 614" d="M267.12,369.178h-3.99a.837.837,0,0,1,0-1.675h3.99a.837.837,0,0,1,0,1.675Z" transform="translate(-262.293 -367.503)" fill="#fff"/>
              </g>
            </g>
            <g id="g939" transform="translate(30.189 29.858)">
              <g id="path941">
                <path id="Tracé_615" data-name="Tracé 615" d="M375.668,369.178H361.4a.837.837,0,0,1,0-1.675h14.269a.837.837,0,1,1,0,1.675Z" transform="translate(-360.561 -367.503)" fill="#fff"/>
              </g>
            </g>
            <g id="g943" transform="translate(11.025 29.858)">
              <g id="path945">
                <path id="Tracé_616" data-name="Tracé 616" d="M139.218,369.178h-6.7a.837.837,0,0,1,0-1.675h6.7a.837.837,0,0,1,0,1.675Z" transform="translate(-131.68 -367.503)" fill="#fff"/>
              </g>
            </g>
          </g>
        </g>
      </g>
    </g>
  </g>
</svg>